<?xml version="1.0" encoding="utf-8" standalone="no"?>
<!DOCTYPE svg PUBLIC "-//W3C//DTD SVG 1.1//EN"
  "http://www.w3.org/Graphics/SVG/1.1/DTD/svg11.dtd">
<svg xmlns:xlink="http://www.w3.org/1999/xlink" width="576pt" height="360pt" viewBox="0 0 576 360" xmlns="http://www.w3.org/2000/svg" version="1.1">
 <metadata>
  <rdf:RDF xmlns:dc="http://purl.org/dc/elements/1.1/" xmlns:cc="http://creativecommons.org/ns#" xmlns:rdf="http://www.w3.org/1999/02/22-rdf-syntax-ns#">
   <cc:Work>
    <dc:type rdf:resource="http://purl.org/dc/dcmitype/StillImage"/>
    <dc:date>2026-07-06T18:35:31.376107</dc:date>
    <dc:format>image/svg+xml</dc:format>
    <dc:creator>
     <cc:Agent>
      <dc:title>Matplotlib v3.9.4, https://matplotlib.org/</dc:title>
     </cc:Agent>
    </dc:creator>
   </cc:Work>
  </rdf:RDF>
 </metadata>
 <defs>
  <style type="text/css">*{stroke-linejoin: round; stroke-linecap: butt}</style>
 </defs>
 <g id="figure_1">
  <g id="patch_1">
   <path d="M 0 360 
L 576 360 
L 576 0 
L 0 0 
z
" style="fill: #ffffff"/>
  </g>
  <g id="axes_1">
   <g id="patch_2">
    <path d="M 47.72 318.04 
L 565.2 318.04 
L 565.2 25.44 
L 47.72 25.44 
z
" style="fill: #ffffff"/>
   </g>
   <g id="matplotlib.axis_1">
    <g id="xtick_1">
     <g id="line2d_1">
      <path d="M 71.123914 318.04 
L 71.123914 25.44 
" clip-path="url(#pcc4c39c008)" style="fill: none; stroke: #b0b0b0; stroke-opacity: 0.15; stroke-width: 0.8; stroke-linecap: square"/>
     </g>
     <g id="line2d_2">
      <defs>
       <path id="mc642e9209c" d="M 0 0 
L 0 3.5 
" style="stroke: #000000; stroke-width: 0.8"/>
      </defs>
      <g>
       <use xlink:href="#mc642e9209c" x="71.123914" y="318.04" style="stroke: #000000; stroke-width: 0.8"/>
      </g>
     </g>
     <g id="text_1">
      <!-- 0 -->
      <g transform="translate(67.942664 332.638438) scale(0.1 -0.1)">
       <defs>
        <path id="DejaVuSans-30" d="M 2034 4250 
Q 1547 4250 1301 3770 
Q 1056 3291 1056 2328 
Q 1056 1369 1301 889 
Q 1547 409 2034 409 
Q 2525 409 2770 889 
Q 3016 1369 3016 2328 
Q 3016 3291 2770 3770 
Q 2525 4250 2034 4250 
z
M 2034 4750 
Q 2819 4750 3233 4129 
Q 3647 3509 3647 2328 
Q 3647 1150 3233 529 
Q 2819 -91 2034 -91 
Q 1250 -91 836 529 
Q 422 1150 422 2328 
Q 422 3509 836 4129 
Q 1250 4750 2034 4750 
z
" transform="scale(0.015625)"/>
       </defs>
       <use xlink:href="#DejaVuSans-30"/>
      </g>
     </g>
    </g>
    <g id="xtick_2">
     <g id="line2d_3">
      <path d="M 130.07584 318.04 
L 130.07584 25.44 
" clip-path="url(#pcc4c39c008)" style="fill: none; stroke: #b0b0b0; stroke-opacity: 0.15; stroke-width: 0.8; stroke-linecap: square"/>
     </g>
     <g id="line2d_4">
      <g>
       <use xlink:href="#mc642e9209c" x="130.07584" y="318.04" style="stroke: #000000; stroke-width: 0.8"/>
      </g>
     </g>
     <g id="text_2">
      <!-- 500 -->
      <g transform="translate(120.53209 332.638438) scale(0.1 -0.1)">
       <defs>
        <path id="DejaVuSans-35" d="M 691 4666 
L 3169 4666 
L 3169 4134 
L 1269 4134 
L 1269 2991 
Q 1406 3038 1543 3061 
Q 1681 3084 1819 3084 
Q 2600 3084 3056 2656 
Q 3513 2228 3513 1497 
Q 3513 744 3044 326 
Q 2575 -91 1722 -91 
Q 1428 -91 1123 -41 
Q 819 9 494 109 
L 494 744 
Q 775 591 1075 516 
Q 1375 441 1709 441 
Q 2250 441 2565 725 
Q 2881 1009 2881 1497 
Q 2881 1984 2565 2268 
Q 2250 2553 1709 2553 
Q 1456 2553 1204 2497 
Q 953 2441 691 2322 
L 691 4666 
z
" transform="scale(0.015625)"/>
       </defs>
       <use xlink:href="#DejaVuSans-35"/>
       <use xlink:href="#DejaVuSans-30" x="63.623047"/>
       <use xlink:href="#DejaVuSans-30" x="127.246094"/>
      </g>
     </g>
    </g>
    <g id="xtick_3">
     <g id="line2d_5">
      <path d="M 189.027765 318.04 
L 189.027765 25.44 
" clip-path="url(#pcc4c39c008)" style="fill: none; stroke: #b0b0b0; stroke-opacity: 0.15; stroke-width: 0.8; stroke-linecap: square"/>
     </g>
     <g id="line2d_6">
      <g>
       <use xlink:href="#mc642e9209c" x="189.027765" y="318.04" style="stroke: #000000; stroke-width: 0.8"/>
      </g>
     </g>
     <g id="text_3">
      <!-- 1000 -->
      <g transform="translate(176.302765 332.638438) scale(0.1 -0.1)">
       <defs>
        <path id="DejaVuSans-31" d="M 794 531 
L 1825 531 
L 1825 4091 
L 703 3866 
L 703 4441 
L 1819 4666 
L 2450 4666 
L 2450 531 
L 3481 531 
L 3481 0 
L 794 0 
L 794 531 
z
" transform="scale(0.015625)"/>
       </defs>
       <use xlink:href="#DejaVuSans-31"/>
       <use xlink:href="#DejaVuSans-30" x="63.623047"/>
       <use xlink:href="#DejaVuSans-30" x="127.246094"/>
       <use xlink:href="#DejaVuSans-30" x="190.869141"/>
      </g>
     </g>
    </g>
    <g id="xtick_4">
     <g id="line2d_7">
      <path d="M 247.97969 318.04 
L 247.97969 25.44 
" clip-path="url(#pcc4c39c008)" style="fill: none; stroke: #b0b0b0; stroke-opacity: 0.15; stroke-width: 0.8; stroke-linecap: square"/>
     </g>
     <g id="line2d_8">
      <g>
       <use xlink:href="#mc642e9209c" x="247.97969" y="318.04" style="stroke: #000000; stroke-width: 0.8"/>
      </g>
     </g>
     <g id="text_4">
      <!-- 1500 -->
      <g transform="translate(235.25469 332.638438) scale(0.1 -0.1)">
       <use xlink:href="#DejaVuSans-31"/>
       <use xlink:href="#DejaVuSans-35" x="63.623047"/>
       <use xlink:href="#DejaVuSans-30" x="127.246094"/>
       <use xlink:href="#DejaVuSans-30" x="190.869141"/>
      </g>
     </g>
    </g>
    <g id="xtick_5">
     <g id="line2d_9">
      <path d="M 306.931615 318.04 
L 306.931615 25.44 
" clip-path="url(#pcc4c39c008)" style="fill: none; stroke: #b0b0b0; stroke-opacity: 0.15; stroke-width: 0.8; stroke-linecap: square"/>
     </g>
     <g id="line2d_10">
      <g>
       <use xlink:href="#mc642e9209c" x="306.931615" y="318.04" style="stroke: #000000; stroke-width: 0.8"/>
      </g>
     </g>
     <g id="text_5">
      <!-- 2000 -->
      <g transform="translate(294.206615 332.638438) scale(0.1 -0.1)">
       <defs>
        <path id="DejaVuSans-32" d="M 1228 531 
L 3431 531 
L 3431 0 
L 469 0 
L 469 531 
Q 828 903 1448 1529 
Q 2069 2156 2228 2338 
Q 2531 2678 2651 2914 
Q 2772 3150 2772 3378 
Q 2772 3750 2511 3984 
Q 2250 4219 1831 4219 
Q 1534 4219 1204 4116 
Q 875 4013 500 3803 
L 500 4441 
Q 881 4594 1212 4672 
Q 1544 4750 1819 4750 
Q 2544 4750 2975 4387 
Q 3406 4025 3406 3419 
Q 3406 3131 3298 2873 
Q 3191 2616 2906 2266 
Q 2828 2175 2409 1742 
Q 1991 1309 1228 531 
z
" transform="scale(0.015625)"/>
       </defs>
       <use xlink:href="#DejaVuSans-32"/>
       <use xlink:href="#DejaVuSans-30" x="63.623047"/>
       <use xlink:href="#DejaVuSans-30" x="127.246094"/>
       <use xlink:href="#DejaVuSans-30" x="190.869141"/>
      </g>
     </g>
    </g>
    <g id="xtick_6">
     <g id="line2d_11">
      <path d="M 365.883541 318.04 
L 365.883541 25.44 
" clip-path="url(#pcc4c39c008)" style="fill: none; stroke: #b0b0b0; stroke-opacity: 0.15; stroke-width: 0.8; stroke-linecap: square"/>
     </g>
     <g id="line2d_12">
      <g>
       <use xlink:href="#mc642e9209c" x="365.883541" y="318.04" style="stroke: #000000; stroke-width: 0.8"/>
      </g>
     </g>
     <g id="text_6">
      <!-- 2500 -->
      <g transform="translate(353.158541 332.638438) scale(0.1 -0.1)">
       <use xlink:href="#DejaVuSans-32"/>
       <use xlink:href="#DejaVuSans-35" x="63.623047"/>
       <use xlink:href="#DejaVuSans-30" x="127.246094"/>
       <use xlink:href="#DejaVuSans-30" x="190.869141"/>
      </g>
     </g>
    </g>
    <g id="xtick_7">
     <g id="line2d_13">
      <path d="M 424.835466 318.04 
L 424.835466 25.44 
" clip-path="url(#pcc4c39c008)" style="fill: none; stroke: #b0b0b0; stroke-opacity: 0.15; stroke-width: 0.8; stroke-linecap: square"/>
     </g>
     <g id="line2d_14">
      <g>
       <use xlink:href="#mc642e9209c" x="424.835466" y="318.04" style="stroke: #000000; stroke-width: 0.8"/>
      </g>
     </g>
     <g id="text_7">
      <!-- 3000 -->
      <g transform="translate(412.110466 332.638438) scale(0.1 -0.1)">
       <defs>
        <path id="DejaVuSans-33" d="M 2597 2516 
Q 3050 2419 3304 2112 
Q 3559 1806 3559 1356 
Q 3559 666 3084 287 
Q 2609 -91 1734 -91 
Q 1441 -91 1130 -33 
Q 819 25 488 141 
L 488 750 
Q 750 597 1062 519 
Q 1375 441 1716 441 
Q 2309 441 2620 675 
Q 2931 909 2931 1356 
Q 2931 1769 2642 2001 
Q 2353 2234 1838 2234 
L 1294 2234 
L 1294 2753 
L 1863 2753 
Q 2328 2753 2575 2939 
Q 2822 3125 2822 3475 
Q 2822 3834 2567 4026 
Q 2313 4219 1838 4219 
Q 1578 4219 1281 4162 
Q 984 4106 628 3988 
L 628 4550 
Q 988 4650 1302 4700 
Q 1616 4750 1894 4750 
Q 2613 4750 3031 4423 
Q 3450 4097 3450 3541 
Q 3450 3153 3228 2886 
Q 3006 2619 2597 2516 
z
" transform="scale(0.015625)"/>
       </defs>
       <use xlink:href="#DejaVuSans-33"/>
       <use xlink:href="#DejaVuSans-30" x="63.623047"/>
       <use xlink:href="#DejaVuSans-30" x="127.246094"/>
       <use xlink:href="#DejaVuSans-30" x="190.869141"/>
      </g>
     </g>
    </g>
    <g id="xtick_8">
     <g id="line2d_15">
      <path d="M 483.787391 318.04 
L 483.787391 25.44 
" clip-path="url(#pcc4c39c008)" style="fill: none; stroke: #b0b0b0; stroke-opacity: 0.15; stroke-width: 0.8; stroke-linecap: square"/>
     </g>
     <g id="line2d_16">
      <g>
       <use xlink:href="#mc642e9209c" x="483.787391" y="318.04" style="stroke: #000000; stroke-width: 0.8"/>
      </g>
     </g>
     <g id="text_8">
      <!-- 3500 -->
      <g transform="translate(471.062391 332.638438) scale(0.1 -0.1)">
       <use xlink:href="#DejaVuSans-33"/>
       <use xlink:href="#DejaVuSans-35" x="63.623047"/>
       <use xlink:href="#DejaVuSans-30" x="127.246094"/>
       <use xlink:href="#DejaVuSans-30" x="190.869141"/>
      </g>
     </g>
    </g>
    <g id="xtick_9">
     <g id="line2d_17">
      <path d="M 542.739316 318.04 
L 542.739316 25.44 
" clip-path="url(#pcc4c39c008)" style="fill: none; stroke: #b0b0b0; stroke-opacity: 0.15; stroke-width: 0.8; stroke-linecap: square"/>
     </g>
     <g id="line2d_18">
      <g>
       <use xlink:href="#mc642e9209c" x="542.739316" y="318.04" style="stroke: #000000; stroke-width: 0.8"/>
      </g>
     </g>
     <g id="text_9">
      <!-- 4000 -->
      <g transform="translate(530.014316 332.638438) scale(0.1 -0.1)">
       <defs>
        <path id="DejaVuSans-34" d="M 2419 4116 
L 825 1625 
L 2419 1625 
L 2419 4116 
z
M 2253 4666 
L 3047 4666 
L 3047 1625 
L 3713 1625 
L 3713 1100 
L 3047 1100 
L 3047 0 
L 2419 0 
L 2419 1100 
L 313 1100 
L 313 1709 
L 2253 4666 
z
" transform="scale(0.015625)"/>
       </defs>
       <use xlink:href="#DejaVuSans-34"/>
       <use xlink:href="#DejaVuSans-30" x="63.623047"/>
       <use xlink:href="#DejaVuSans-30" x="127.246094"/>
       <use xlink:href="#DejaVuSans-30" x="190.869141"/>
      </g>
     </g>
    </g>
    <g id="text_10">
     <!-- 2D distance from base station (m) -->
     <g transform="translate(220.76625 346.316563) scale(0.1 -0.1)">
      <defs>
       <path id="DejaVuSans-44" d="M 1259 4147 
L 1259 519 
L 2022 519 
Q 2988 519 3436 956 
Q 3884 1394 3884 2338 
Q 3884 3275 3436 3711 
Q 2988 4147 2022 4147 
L 1259 4147 
z
M 628 4666 
L 1925 4666 
Q 3281 4666 3915 4102 
Q 4550 3538 4550 2338 
Q 4550 1131 3912 565 
Q 3275 0 1925 0 
L 628 0 
L 628 4666 
z
" transform="scale(0.015625)"/>
       <path id="DejaVuSans-20" transform="scale(0.015625)"/>
       <path id="DejaVuSans-64" d="M 2906 2969 
L 2906 4863 
L 3481 4863 
L 3481 0 
L 2906 0 
L 2906 525 
Q 2725 213 2448 61 
Q 2172 -91 1784 -91 
Q 1150 -91 751 415 
Q 353 922 353 1747 
Q 353 2572 751 3078 
Q 1150 3584 1784 3584 
Q 2172 3584 2448 3432 
Q 2725 3281 2906 2969 
z
M 947 1747 
Q 947 1113 1208 752 
Q 1469 391 1925 391 
Q 2381 391 2643 752 
Q 2906 1113 2906 1747 
Q 2906 2381 2643 2742 
Q 2381 3103 1925 3103 
Q 1469 3103 1208 2742 
Q 947 2381 947 1747 
z
" transform="scale(0.015625)"/>
       <path id="DejaVuSans-69" d="M 603 3500 
L 1178 3500 
L 1178 0 
L 603 0 
L 603 3500 
z
M 603 4863 
L 1178 4863 
L 1178 4134 
L 603 4134 
L 603 4863 
z
" transform="scale(0.015625)"/>
       <path id="DejaVuSans-73" d="M 2834 3397 
L 2834 2853 
Q 2591 2978 2328 3040 
Q 2066 3103 1784 3103 
Q 1356 3103 1142 2972 
Q 928 2841 928 2578 
Q 928 2378 1081 2264 
Q 1234 2150 1697 2047 
L 1894 2003 
Q 2506 1872 2764 1633 
Q 3022 1394 3022 966 
Q 3022 478 2636 193 
Q 2250 -91 1575 -91 
Q 1294 -91 989 -36 
Q 684 19 347 128 
L 347 722 
Q 666 556 975 473 
Q 1284 391 1588 391 
Q 1994 391 2212 530 
Q 2431 669 2431 922 
Q 2431 1156 2273 1281 
Q 2116 1406 1581 1522 
L 1381 1569 
Q 847 1681 609 1914 
Q 372 2147 372 2553 
Q 372 3047 722 3315 
Q 1072 3584 1716 3584 
Q 2034 3584 2315 3537 
Q 2597 3491 2834 3397 
z
" transform="scale(0.015625)"/>
       <path id="DejaVuSans-74" d="M 1172 4494 
L 1172 3500 
L 2356 3500 
L 2356 3053 
L 1172 3053 
L 1172 1153 
Q 1172 725 1289 603 
Q 1406 481 1766 481 
L 2356 481 
L 2356 0 
L 1766 0 
Q 1100 0 847 248 
Q 594 497 594 1153 
L 594 3053 
L 172 3053 
L 172 3500 
L 594 3500 
L 594 4494 
L 1172 4494 
z
" transform="scale(0.015625)"/>
       <path id="DejaVuSans-61" d="M 2194 1759 
Q 1497 1759 1228 1600 
Q 959 1441 959 1056 
Q 959 750 1161 570 
Q 1363 391 1709 391 
Q 2188 391 2477 730 
Q 2766 1069 2766 1631 
L 2766 1759 
L 2194 1759 
z
M 3341 1997 
L 3341 0 
L 2766 0 
L 2766 531 
Q 2569 213 2275 61 
Q 1981 -91 1556 -91 
Q 1019 -91 701 211 
Q 384 513 384 1019 
Q 384 1609 779 1909 
Q 1175 2209 1959 2209 
L 2766 2209 
L 2766 2266 
Q 2766 2663 2505 2880 
Q 2244 3097 1772 3097 
Q 1472 3097 1187 3025 
Q 903 2953 641 2809 
L 641 3341 
Q 956 3463 1253 3523 
Q 1550 3584 1831 3584 
Q 2591 3584 2966 3190 
Q 3341 2797 3341 1997 
z
" transform="scale(0.015625)"/>
       <path id="DejaVuSans-6e" d="M 3513 2113 
L 3513 0 
L 2938 0 
L 2938 2094 
Q 2938 2591 2744 2837 
Q 2550 3084 2163 3084 
Q 1697 3084 1428 2787 
Q 1159 2491 1159 1978 
L 1159 0 
L 581 0 
L 581 3500 
L 1159 3500 
L 1159 2956 
Q 1366 3272 1645 3428 
Q 1925 3584 2291 3584 
Q 2894 3584 3203 3211 
Q 3513 2838 3513 2113 
z
" transform="scale(0.015625)"/>
       <path id="DejaVuSans-63" d="M 3122 3366 
L 3122 2828 
Q 2878 2963 2633 3030 
Q 2388 3097 2138 3097 
Q 1578 3097 1268 2742 
Q 959 2388 959 1747 
Q 959 1106 1268 751 
Q 1578 397 2138 397 
Q 2388 397 2633 464 
Q 2878 531 3122 666 
L 3122 134 
Q 2881 22 2623 -34 
Q 2366 -91 2075 -91 
Q 1284 -91 818 406 
Q 353 903 353 1747 
Q 353 2603 823 3093 
Q 1294 3584 2113 3584 
Q 2378 3584 2631 3529 
Q 2884 3475 3122 3366 
z
" transform="scale(0.015625)"/>
       <path id="DejaVuSans-65" d="M 3597 1894 
L 3597 1613 
L 953 1613 
Q 991 1019 1311 708 
Q 1631 397 2203 397 
Q 2534 397 2845 478 
Q 3156 559 3463 722 
L 3463 178 
Q 3153 47 2828 -22 
Q 2503 -91 2169 -91 
Q 1331 -91 842 396 
Q 353 884 353 1716 
Q 353 2575 817 3079 
Q 1281 3584 2069 3584 
Q 2775 3584 3186 3129 
Q 3597 2675 3597 1894 
z
M 3022 2063 
Q 3016 2534 2758 2815 
Q 2500 3097 2075 3097 
Q 1594 3097 1305 2825 
Q 1016 2553 972 2059 
L 3022 2063 
z
" transform="scale(0.015625)"/>
       <path id="DejaVuSans-66" d="M 2375 4863 
L 2375 4384 
L 1825 4384 
Q 1516 4384 1395 4259 
Q 1275 4134 1275 3809 
L 1275 3500 
L 2222 3500 
L 2222 3053 
L 1275 3053 
L 1275 0 
L 697 0 
L 697 3053 
L 147 3053 
L 147 3500 
L 697 3500 
L 697 3744 
Q 697 4328 969 4595 
Q 1241 4863 1831 4863 
L 2375 4863 
z
" transform="scale(0.015625)"/>
       <path id="DejaVuSans-72" d="M 2631 2963 
Q 2534 3019 2420 3045 
Q 2306 3072 2169 3072 
Q 1681 3072 1420 2755 
Q 1159 2438 1159 1844 
L 1159 0 
L 581 0 
L 581 3500 
L 1159 3500 
L 1159 2956 
Q 1341 3275 1631 3429 
Q 1922 3584 2338 3584 
Q 2397 3584 2469 3576 
Q 2541 3569 2628 3553 
L 2631 2963 
z
" transform="scale(0.015625)"/>
       <path id="DejaVuSans-6f" d="M 1959 3097 
Q 1497 3097 1228 2736 
Q 959 2375 959 1747 
Q 959 1119 1226 758 
Q 1494 397 1959 397 
Q 2419 397 2687 759 
Q 2956 1122 2956 1747 
Q 2956 2369 2687 2733 
Q 2419 3097 1959 3097 
z
M 1959 3584 
Q 2709 3584 3137 3096 
Q 3566 2609 3566 1747 
Q 3566 888 3137 398 
Q 2709 -91 1959 -91 
Q 1206 -91 779 398 
Q 353 888 353 1747 
Q 353 2609 779 3096 
Q 1206 3584 1959 3584 
z
" transform="scale(0.015625)"/>
       <path id="DejaVuSans-6d" d="M 3328 2828 
Q 3544 3216 3844 3400 
Q 4144 3584 4550 3584 
Q 5097 3584 5394 3201 
Q 5691 2819 5691 2113 
L 5691 0 
L 5113 0 
L 5113 2094 
Q 5113 2597 4934 2840 
Q 4756 3084 4391 3084 
Q 3944 3084 3684 2787 
Q 3425 2491 3425 1978 
L 3425 0 
L 2847 0 
L 2847 2094 
Q 2847 2600 2669 2842 
Q 2491 3084 2119 3084 
Q 1678 3084 1418 2786 
Q 1159 2488 1159 1978 
L 1159 0 
L 581 0 
L 581 3500 
L 1159 3500 
L 1159 2956 
Q 1356 3278 1631 3431 
Q 1906 3584 2284 3584 
Q 2666 3584 2933 3390 
Q 3200 3197 3328 2828 
z
" transform="scale(0.015625)"/>
       <path id="DejaVuSans-62" d="M 3116 1747 
Q 3116 2381 2855 2742 
Q 2594 3103 2138 3103 
Q 1681 3103 1420 2742 
Q 1159 2381 1159 1747 
Q 1159 1113 1420 752 
Q 1681 391 2138 391 
Q 2594 391 2855 752 
Q 3116 1113 3116 1747 
z
M 1159 2969 
Q 1341 3281 1617 3432 
Q 1894 3584 2278 3584 
Q 2916 3584 3314 3078 
Q 3713 2572 3713 1747 
Q 3713 922 3314 415 
Q 2916 -91 2278 -91 
Q 1894 -91 1617 61 
Q 1341 213 1159 525 
L 1159 0 
L 581 0 
L 581 4863 
L 1159 4863 
L 1159 2969 
z
" transform="scale(0.015625)"/>
       <path id="DejaVuSans-28" d="M 1984 4856 
Q 1566 4138 1362 3434 
Q 1159 2731 1159 2009 
Q 1159 1288 1364 580 
Q 1569 -128 1984 -844 
L 1484 -844 
Q 1016 -109 783 600 
Q 550 1309 550 2009 
Q 550 2706 781 3412 
Q 1013 4119 1484 4856 
L 1984 4856 
z
" transform="scale(0.015625)"/>
       <path id="DejaVuSans-29" d="M 513 4856 
L 1013 4856 
Q 1481 4119 1714 3412 
Q 1947 2706 1947 2009 
Q 1947 1309 1714 600 
Q 1481 -109 1013 -844 
L 513 -844 
Q 928 -128 1133 580 
Q 1338 1288 1338 2009 
Q 1338 2731 1133 3434 
Q 928 4138 513 4856 
z
" transform="scale(0.015625)"/>
      </defs>
      <use xlink:href="#DejaVuSans-32"/>
      <use xlink:href="#DejaVuSans-44" x="63.623047"/>
      <use xlink:href="#DejaVuSans-20" x="140.625"/>
      <use xlink:href="#DejaVuSans-64" x="172.412109"/>
      <use xlink:href="#DejaVuSans-69" x="235.888672"/>
      <use xlink:href="#DejaVuSans-73" x="263.671875"/>
      <use xlink:href="#DejaVuSans-74" x="315.771484"/>
      <use xlink:href="#DejaVuSans-61" x="354.980469"/>
      <use xlink:href="#DejaVuSans-6e" x="416.259766"/>
      <use xlink:href="#DejaVuSans-63" x="479.638672"/>
      <use xlink:href="#DejaVuSans-65" x="534.619141"/>
      <use xlink:href="#DejaVuSans-20" x="596.142578"/>
      <use xlink:href="#DejaVuSans-66" x="627.929688"/>
      <use xlink:href="#DejaVuSans-72" x="663.134766"/>
      <use xlink:href="#DejaVuSans-6f" x="701.998047"/>
      <use xlink:href="#DejaVuSans-6d" x="763.179688"/>
      <use xlink:href="#DejaVuSans-20" x="860.591797"/>
      <use xlink:href="#DejaVuSans-62" x="892.378906"/>
      <use xlink:href="#DejaVuSans-61" x="955.855469"/>
      <use xlink:href="#DejaVuSans-73" x="1017.134766"/>
      <use xlink:href="#DejaVuSans-65" x="1069.234375"/>
      <use xlink:href="#DejaVuSans-20" x="1130.757812"/>
      <use xlink:href="#DejaVuSans-73" x="1162.544922"/>
      <use xlink:href="#DejaVuSans-74" x="1214.644531"/>
      <use xlink:href="#DejaVuSans-61" x="1253.853516"/>
      <use xlink:href="#DejaVuSans-74" x="1315.132812"/>
      <use xlink:href="#DejaVuSans-69" x="1354.341797"/>
      <use xlink:href="#DejaVuSans-6f" x="1382.125"/>
      <use xlink:href="#DejaVuSans-6e" x="1443.306641"/>
      <use xlink:href="#DejaVuSans-20" x="1506.685547"/>
      <use xlink:href="#DejaVuSans-28" x="1538.472656"/>
      <use xlink:href="#DejaVuSans-6d" x="1577.486328"/>
      <use xlink:href="#DejaVuSans-29" x="1674.898438"/>
     </g>
    </g>
   </g>
   <g id="matplotlib.axis_2">
    <g id="ytick_1">
     <g id="line2d_19">
      <path d="M 47.72 318.04 
L 565.2 318.04 
" clip-path="url(#pcc4c39c008)" style="fill: none; stroke: #b0b0b0; stroke-opacity: 0.15; stroke-width: 0.8; stroke-linecap: square"/>
     </g>
     <g id="line2d_20">
      <defs>
       <path id="m08e35a8163" d="M 0 0 
L -3.5 0 
" style="stroke: #000000; stroke-width: 0.8"/>
      </defs>
      <g>
       <use xlink:href="#m08e35a8163" x="47.72" y="318.04" style="stroke: #000000; stroke-width: 0.8"/>
      </g>
     </g>
     <g id="text_11">
      <!-- 0.0 -->
      <g transform="translate(24.816875 321.839219) scale(0.1 -0.1)">
       <defs>
        <path id="DejaVuSans-2e" d="M 684 794 
L 1344 794 
L 1344 0 
L 684 0 
L 684 794 
z
" transform="scale(0.015625)"/>
       </defs>
       <use xlink:href="#DejaVuSans-30"/>
       <use xlink:href="#DejaVuSans-2e" x="63.623047"/>
       <use xlink:href="#DejaVuSans-30" x="95.410156"/>
      </g>
     </g>
    </g>
    <g id="ytick_2">
     <g id="line2d_21">
      <path d="M 47.72 260.667451 
L 565.2 260.667451 
" clip-path="url(#pcc4c39c008)" style="fill: none; stroke: #b0b0b0; stroke-opacity: 0.15; stroke-width: 0.8; stroke-linecap: square"/>
     </g>
     <g id="line2d_22">
      <g>
       <use xlink:href="#m08e35a8163" x="47.72" y="260.667451" style="stroke: #000000; stroke-width: 0.8"/>
      </g>
     </g>
     <g id="text_12">
      <!-- 0.2 -->
      <g transform="translate(24.816875 264.46667) scale(0.1 -0.1)">
       <use xlink:href="#DejaVuSans-30"/>
       <use xlink:href="#DejaVuSans-2e" x="63.623047"/>
       <use xlink:href="#DejaVuSans-32" x="95.410156"/>
      </g>
     </g>
    </g>
    <g id="ytick_3">
     <g id="line2d_23">
      <path d="M 47.72 203.294902 
L 565.2 203.294902 
" clip-path="url(#pcc4c39c008)" style="fill: none; stroke: #b0b0b0; stroke-opacity: 0.15; stroke-width: 0.8; stroke-linecap: square"/>
     </g>
     <g id="line2d_24">
      <g>
       <use xlink:href="#m08e35a8163" x="47.72" y="203.294902" style="stroke: #000000; stroke-width: 0.8"/>
      </g>
     </g>
     <g id="text_13">
      <!-- 0.4 -->
      <g transform="translate(24.816875 207.094121) scale(0.1 -0.1)">
       <use xlink:href="#DejaVuSans-30"/>
       <use xlink:href="#DejaVuSans-2e" x="63.623047"/>
       <use xlink:href="#DejaVuSans-34" x="95.410156"/>
      </g>
     </g>
    </g>
    <g id="ytick_4">
     <g id="line2d_25">
      <path d="M 47.72 145.922353 
L 565.2 145.922353 
" clip-path="url(#pcc4c39c008)" style="fill: none; stroke: #b0b0b0; stroke-opacity: 0.15; stroke-width: 0.8; stroke-linecap: square"/>
     </g>
     <g id="line2d_26">
      <g>
       <use xlink:href="#m08e35a8163" x="47.72" y="145.922353" style="stroke: #000000; stroke-width: 0.8"/>
      </g>
     </g>
     <g id="text_14">
      <!-- 0.6 -->
      <g transform="translate(24.816875 149.721572) scale(0.1 -0.1)">
       <defs>
        <path id="DejaVuSans-36" d="M 2113 2584 
Q 1688 2584 1439 2293 
Q 1191 2003 1191 1497 
Q 1191 994 1439 701 
Q 1688 409 2113 409 
Q 2538 409 2786 701 
Q 3034 994 3034 1497 
Q 3034 2003 2786 2293 
Q 2538 2584 2113 2584 
z
M 3366 4563 
L 3366 3988 
Q 3128 4100 2886 4159 
Q 2644 4219 2406 4219 
Q 1781 4219 1451 3797 
Q 1122 3375 1075 2522 
Q 1259 2794 1537 2939 
Q 1816 3084 2150 3084 
Q 2853 3084 3261 2657 
Q 3669 2231 3669 1497 
Q 3669 778 3244 343 
Q 2819 -91 2113 -91 
Q 1303 -91 875 529 
Q 447 1150 447 2328 
Q 447 3434 972 4092 
Q 1497 4750 2381 4750 
Q 2619 4750 2861 4703 
Q 3103 4656 3366 4563 
z
" transform="scale(0.015625)"/>
       </defs>
       <use xlink:href="#DejaVuSans-30"/>
       <use xlink:href="#DejaVuSans-2e" x="63.623047"/>
       <use xlink:href="#DejaVuSans-36" x="95.410156"/>
      </g>
     </g>
    </g>
    <g id="ytick_5">
     <g id="line2d_27">
      <path d="M 47.72 88.549804 
L 565.2 88.549804 
" clip-path="url(#pcc4c39c008)" style="fill: none; stroke: #b0b0b0; stroke-opacity: 0.15; stroke-width: 0.8; stroke-linecap: square"/>
     </g>
     <g id="line2d_28">
      <g>
       <use xlink:href="#m08e35a8163" x="47.72" y="88.549804" style="stroke: #000000; stroke-width: 0.8"/>
      </g>
     </g>
     <g id="text_15">
      <!-- 0.8 -->
      <g transform="translate(24.816875 92.349023) scale(0.1 -0.1)">
       <defs>
        <path id="DejaVuSans-38" d="M 2034 2216 
Q 1584 2216 1326 1975 
Q 1069 1734 1069 1313 
Q 1069 891 1326 650 
Q 1584 409 2034 409 
Q 2484 409 2743 651 
Q 3003 894 3003 1313 
Q 3003 1734 2745 1975 
Q 2488 2216 2034 2216 
z
M 1403 2484 
Q 997 2584 770 2862 
Q 544 3141 544 3541 
Q 544 4100 942 4425 
Q 1341 4750 2034 4750 
Q 2731 4750 3128 4425 
Q 3525 4100 3525 3541 
Q 3525 3141 3298 2862 
Q 3072 2584 2669 2484 
Q 3125 2378 3379 2068 
Q 3634 1759 3634 1313 
Q 3634 634 3220 271 
Q 2806 -91 2034 -91 
Q 1263 -91 848 271 
Q 434 634 434 1313 
Q 434 1759 690 2068 
Q 947 2378 1403 2484 
z
M 1172 3481 
Q 1172 3119 1398 2916 
Q 1625 2713 2034 2713 
Q 2441 2713 2670 2916 
Q 2900 3119 2900 3481 
Q 2900 3844 2670 4047 
Q 2441 4250 2034 4250 
Q 1625 4250 1398 4047 
Q 1172 3844 1172 3481 
z
" transform="scale(0.015625)"/>
       </defs>
       <use xlink:href="#DejaVuSans-30"/>
       <use xlink:href="#DejaVuSans-2e" x="63.623047"/>
       <use xlink:href="#DejaVuSans-38" x="95.410156"/>
      </g>
     </g>
    </g>
    <g id="ytick_6">
     <g id="line2d_29">
      <path d="M 47.72 31.177255 
L 565.2 31.177255 
" clip-path="url(#pcc4c39c008)" style="fill: none; stroke: #b0b0b0; stroke-opacity: 0.15; stroke-width: 0.8; stroke-linecap: square"/>
     </g>
     <g id="line2d_30">
      <g>
       <use xlink:href="#m08e35a8163" x="47.72" y="31.177255" style="stroke: #000000; stroke-width: 0.8"/>
      </g>
     </g>
     <g id="text_16">
      <!-- 1.0 -->
      <g transform="translate(24.816875 34.976474) scale(0.1 -0.1)">
       <use xlink:href="#DejaVuSans-31"/>
       <use xlink:href="#DejaVuSans-2e" x="63.623047"/>
       <use xlink:href="#DejaVuSans-30" x="95.410156"/>
      </g>
     </g>
    </g>
    <g id="text_17">
     <!-- LoS probability -->
     <g transform="translate(18.737187 208.936875) rotate(-90) scale(0.1 -0.1)">
      <defs>
       <path id="DejaVuSans-4c" d="M 628 4666 
L 1259 4666 
L 1259 531 
L 3531 531 
L 3531 0 
L 628 0 
L 628 4666 
z
" transform="scale(0.015625)"/>
       <path id="DejaVuSans-53" d="M 3425 4513 
L 3425 3897 
Q 3066 4069 2747 4153 
Q 2428 4238 2131 4238 
Q 1616 4238 1336 4038 
Q 1056 3838 1056 3469 
Q 1056 3159 1242 3001 
Q 1428 2844 1947 2747 
L 2328 2669 
Q 3034 2534 3370 2195 
Q 3706 1856 3706 1288 
Q 3706 609 3251 259 
Q 2797 -91 1919 -91 
Q 1588 -91 1214 -16 
Q 841 59 441 206 
L 441 856 
Q 825 641 1194 531 
Q 1563 422 1919 422 
Q 2459 422 2753 634 
Q 3047 847 3047 1241 
Q 3047 1584 2836 1778 
Q 2625 1972 2144 2069 
L 1759 2144 
Q 1053 2284 737 2584 
Q 422 2884 422 3419 
Q 422 4038 858 4394 
Q 1294 4750 2059 4750 
Q 2388 4750 2728 4690 
Q 3069 4631 3425 4513 
z
" transform="scale(0.015625)"/>
       <path id="DejaVuSans-70" d="M 1159 525 
L 1159 -1331 
L 581 -1331 
L 581 3500 
L 1159 3500 
L 1159 2969 
Q 1341 3281 1617 3432 
Q 1894 3584 2278 3584 
Q 2916 3584 3314 3078 
Q 3713 2572 3713 1747 
Q 3713 922 3314 415 
Q 2916 -91 2278 -91 
Q 1894 -91 1617 61 
Q 1341 213 1159 525 
z
M 3116 1747 
Q 3116 2381 2855 2742 
Q 2594 3103 2138 3103 
Q 1681 3103 1420 2742 
Q 1159 2381 1159 1747 
Q 1159 1113 1420 752 
Q 1681 391 2138 391 
Q 2594 391 2855 752 
Q 3116 1113 3116 1747 
z
" transform="scale(0.015625)"/>
       <path id="DejaVuSans-6c" d="M 603 4863 
L 1178 4863 
L 1178 0 
L 603 0 
L 603 4863 
z
" transform="scale(0.015625)"/>
       <path id="DejaVuSans-79" d="M 2059 -325 
Q 1816 -950 1584 -1140 
Q 1353 -1331 966 -1331 
L 506 -1331 
L 506 -850 
L 844 -850 
Q 1081 -850 1212 -737 
Q 1344 -625 1503 -206 
L 1606 56 
L 191 3500 
L 800 3500 
L 1894 763 
L 2988 3500 
L 3597 3500 
L 2059 -325 
z
" transform="scale(0.015625)"/>
      </defs>
      <use xlink:href="#DejaVuSans-4c"/>
      <use xlink:href="#DejaVuSans-6f" x="53.962891"/>
      <use xlink:href="#DejaVuSans-53" x="115.144531"/>
      <use xlink:href="#DejaVuSans-20" x="178.621094"/>
      <use xlink:href="#DejaVuSans-70" x="210.408203"/>
      <use xlink:href="#DejaVuSans-72" x="273.884766"/>
      <use xlink:href="#DejaVuSans-6f" x="312.748047"/>
      <use xlink:href="#DejaVuSans-62" x="373.929688"/>
      <use xlink:href="#DejaVuSans-61" x="437.40625"/>
      <use xlink:href="#DejaVuSans-62" x="498.685547"/>
      <use xlink:href="#DejaVuSans-69" x="562.162109"/>
      <use xlink:href="#DejaVuSans-6c" x="589.945312"/>
      <use xlink:href="#DejaVuSans-69" x="617.728516"/>
      <use xlink:href="#DejaVuSans-74" x="645.511719"/>
      <use xlink:href="#DejaVuSans-79" x="684.720703"/>
     </g>
    </g>
   </g>
   <g id="line2d_31">
    <path d="M 71.241818 31.177255 
L 97.180665 31.235663 
L 113.687204 39.29477 
L 131.372782 47.674591 
L 149.05836 55.798591 
L 166.743937 63.674609 
L 184.429515 71.310246 
L 202.115092 78.712866 
L 220.979708 86.3602 
L 239.844324 93.758926 
L 258.708941 100.91716 
L 277.573557 107.842755 
L 297.617211 114.954784 
L 317.660866 121.821556 
L 337.70452 128.451569 
L 357.748175 134.853024 
L 378.970868 141.39071 
L 400.193561 147.690093 
L 421.416254 153.759905 
L 443.817986 159.927159 
L 466.219717 165.857509 
L 488.621449 171.560104 
L 512.202219 177.32645 
L 535.782989 182.86003 
L 541.678182 184.208171 
L 541.678182 184.208171 
" clip-path="url(#pcc4c39c008)" style="fill: none; stroke: #16a34a; stroke-width: 2.2; stroke-linecap: square"/>
   </g>
   <g id="line2d_32">
    <path d="M 71.241818 31.177255 
L 88.927396 31.177255 
L 90.106434 34.211486 
L 93.64355 49.246028 
L 97.180665 63.397101 
L 100.717781 76.718102 
L 104.254896 89.259164 
L 107.792012 101.067354 
L 111.329127 112.186866 
L 114.866243 122.659193 
L 118.403358 132.523297 
L 121.940474 141.815761 
L 125.477589 150.570938 
L 129.014705 158.821085 
L 132.55182 166.596494 
L 136.088936 173.925614 
L 139.626051 180.83516 
L 143.163167 187.350221 
L 146.700283 193.494362 
L 150.237398 199.289714 
L 153.774514 204.757064 
L 158.490668 211.570215 
L 163.206822 217.877865 
L 167.922976 223.71961 
L 172.63913 229.131877 
L 177.355284 234.148186 
L 182.071438 238.79938 
L 186.787592 243.113843 
L 191.503746 247.117699 
L 196.2199 250.834989 
L 200.936054 254.287847 
L 205.652208 257.496646 
L 210.368362 260.480145 
L 216.263554 263.918869 
L 222.158747 267.063208 
L 228.053939 269.940912 
L 233.949132 272.577025 
L 239.844324 274.994148 
L 246.918555 277.634215 
L 253.992787 280.019741 
L 261.067018 282.178626 
L 269.320287 284.443662 
L 277.573557 286.468114 
L 287.005865 288.525307 
L 296.438173 290.345511 
L 307.049519 292.150471 
L 317.660866 293.736052 
L 329.451251 295.280343 
L 342.420674 296.757537 
L 356.569136 298.150292 
L 373.075676 299.540941 
L 390.761253 300.807153 
L 410.804908 302.022495 
L 434.385678 303.221922 
L 461.503563 304.369129 
L 493.337603 305.482295 
L 531.066835 306.56529 
L 541.678182 306.833917 
L 541.678182 306.833917 
" clip-path="url(#pcc4c39c008)" style="fill: none; stroke-dasharray: 8.14,3.52; stroke-dashoffset: 0; stroke: #dc2626; stroke-width: 2.2"/>
   </g>
   <g id="patch_3">
    <path d="M 47.72 318.04 
L 47.72 25.44 
" style="fill: none; stroke: #000000; stroke-width: 0.8; stroke-linejoin: miter; stroke-linecap: square"/>
   </g>
   <g id="patch_4">
    <path d="M 565.2 318.04 
L 565.2 25.44 
" style="fill: none; stroke: #000000; stroke-width: 0.8; stroke-linejoin: miter; stroke-linecap: square"/>
   </g>
   <g id="patch_5">
    <path d="M 47.72 318.04 
L 565.2 318.04 
" style="fill: none; stroke: #000000; stroke-width: 0.8; stroke-linejoin: miter; stroke-linecap: square"/>
   </g>
   <g id="patch_6">
    <path d="M 47.72 25.44 
L 565.2 25.44 
" style="fill: none; stroke: #000000; stroke-width: 0.8; stroke-linejoin: miter; stroke-linecap: square"/>
   </g>
   <g id="patch_7">
    <path d="M 250.956068 144.51642 
Q 220.965216 151.605626 192.062413 158.43764 
" style="fill: none; stroke: #888888; stroke-linecap: round"/>
    <path d="M 195.979937 159.361224 
L 192.062413 158.43764 
L 195.151795 155.857771 
" style="fill: none; stroke: #888888; stroke-linecap: round"/>
   </g>
   <g id="text_18">
    <!-- at 1 km: 0.85 → 0.25 -->
    <g style="fill: #dc2626" transform="translate(242.084498 130.107067) scale(0.09 -0.09)">
     <defs>
      <path id="DejaVuSans-6b" d="M 581 4863 
L 1159 4863 
L 1159 1991 
L 2875 3500 
L 3609 3500 
L 1753 1863 
L 3688 0 
L 2938 0 
L 1159 1709 
L 1159 0 
L 581 0 
L 581 4863 
z
" transform="scale(0.015625)"/>
      <path id="DejaVuSans-3a" d="M 750 794 
L 1409 794 
L 1409 0 
L 750 0 
L 750 794 
z
M 750 3309 
L 1409 3309 
L 1409 2516 
L 750 2516 
L 750 3309 
z
" transform="scale(0.015625)"/>
      <path id="DejaVuSans-2192" d="M 5050 2147 
L 5050 1866 
L 3822 638 
L 3447 1013 
L 4175 1741 
L 366 1741 
L 366 2272 
L 4175 2272 
L 3447 3000 
L 3822 3375 
L 5050 2147 
z
" transform="scale(0.015625)"/>
     </defs>
     <use xlink:href="#DejaVuSans-61"/>
     <use xlink:href="#DejaVuSans-74" x="61.279297"/>
     <use xlink:href="#DejaVuSans-20" x="100.488281"/>
     <use xlink:href="#DejaVuSans-31" x="132.275391"/>
     <use xlink:href="#DejaVuSans-20" x="195.898438"/>
     <use xlink:href="#DejaVuSans-6b" x="227.685547"/>
     <use xlink:href="#DejaVuSans-6d" x="285.595703"/>
     <use xlink:href="#DejaVuSans-3a" x="383.007812"/>
     <use xlink:href="#DejaVuSans-20" x="416.699219"/>
     <use xlink:href="#DejaVuSans-30" x="448.486328"/>
     <use xlink:href="#DejaVuSans-2e" x="512.109375"/>
     <use xlink:href="#DejaVuSans-38" x="543.896484"/>
     <use xlink:href="#DejaVuSans-35" x="607.519531"/>
     <use xlink:href="#DejaVuSans-20" x="671.142578"/>
     <use xlink:href="#DejaVuSans-2192" x="702.929688"/>
     <use xlink:href="#DejaVuSans-20" x="786.71875"/>
     <use xlink:href="#DejaVuSans-30" x="818.505859"/>
     <use xlink:href="#DejaVuSans-2e" x="882.128906"/>
     <use xlink:href="#DejaVuSans-32" x="913.916016"/>
     <use xlink:href="#DejaVuSans-35" x="977.539062"/>
    </g>
    <!-- ≈ 10 dB error · backwards -->
    <g style="fill: #dc2626" transform="translate(242.084498 140.185098) scale(0.09 -0.09)">
     <defs>
      <path id="DejaVuSans-2248" d="M 4684 1947 
L 4684 1388 
Q 4356 1144 4076 1036 
Q 3797 928 3494 928 
Q 3150 928 2694 1113 
Q 2663 1125 2641 1134 
Q 2622 1141 2575 1159 
Q 2091 1350 1797 1350 
Q 1522 1350 1253 1231 
Q 984 1113 678 850 
L 678 1409 
Q 1006 1653 1286 1761 
Q 1566 1869 1869 1869 
Q 2213 1869 2672 1684 
Q 2706 1669 2722 1663 
Q 2741 1656 2788 1638 
Q 3272 1447 3566 1447 
Q 3834 1447 4098 1564 
Q 4363 1681 4684 1947 
z
M 4684 3163 
L 4684 2606 
Q 4356 2359 4076 2251 
Q 3797 2144 3494 2144 
Q 3150 2144 2694 2328 
Q 2663 2341 2641 2350 
Q 2622 2356 2575 2375 
Q 2091 2566 1797 2566 
Q 1522 2566 1253 2447 
Q 984 2328 678 2069 
L 678 2625 
Q 1006 2869 1286 2976 
Q 1566 3084 1869 3084 
Q 2213 3084 2672 2900 
Q 2703 2888 2719 2881 
Q 2741 2872 2788 2853 
Q 3272 2663 3566 2663 
Q 3834 2663 4098 2780 
Q 4363 2897 4684 3163 
z
" transform="scale(0.015625)"/>
      <path id="DejaVuSans-42" d="M 1259 2228 
L 1259 519 
L 2272 519 
Q 2781 519 3026 730 
Q 3272 941 3272 1375 
Q 3272 1813 3026 2020 
Q 2781 2228 2272 2228 
L 1259 2228 
z
M 1259 4147 
L 1259 2741 
L 2194 2741 
Q 2656 2741 2882 2914 
Q 3109 3088 3109 3444 
Q 3109 3797 2882 3972 
Q 2656 4147 2194 4147 
L 1259 4147 
z
M 628 4666 
L 2241 4666 
Q 2963 4666 3353 4366 
Q 3744 4066 3744 3513 
Q 3744 3084 3544 2831 
Q 3344 2578 2956 2516 
Q 3422 2416 3680 2098 
Q 3938 1781 3938 1306 
Q 3938 681 3513 340 
Q 3088 0 2303 0 
L 628 0 
L 628 4666 
z
" transform="scale(0.015625)"/>
      <path id="DejaVuSans-b7" d="M 684 2619 
L 1344 2619 
L 1344 1825 
L 684 1825 
L 684 2619 
z
" transform="scale(0.015625)"/>
      <path id="DejaVuSans-77" d="M 269 3500 
L 844 3500 
L 1563 769 
L 2278 3500 
L 2956 3500 
L 3675 769 
L 4391 3500 
L 4966 3500 
L 4050 0 
L 3372 0 
L 2619 2869 
L 1863 0 
L 1184 0 
L 269 3500 
z
" transform="scale(0.015625)"/>
     </defs>
     <use xlink:href="#DejaVuSans-2248"/>
     <use xlink:href="#DejaVuSans-20" x="83.789062"/>
     <use xlink:href="#DejaVuSans-31" x="115.576172"/>
     <use xlink:href="#DejaVuSans-30" x="179.199219"/>
     <use xlink:href="#DejaVuSans-20" x="242.822266"/>
     <use xlink:href="#DejaVuSans-64" x="274.609375"/>
     <use xlink:href="#DejaVuSans-42" x="338.085938"/>
     <use xlink:href="#DejaVuSans-20" x="406.689453"/>
     <use xlink:href="#DejaVuSans-65" x="438.476562"/>
     <use xlink:href="#DejaVuSans-72" x="500"/>
     <use xlink:href="#DejaVuSans-72" x="539.363281"/>
     <use xlink:href="#DejaVuSans-6f" x="578.226562"/>
     <use xlink:href="#DejaVuSans-72" x="639.408203"/>
     <use xlink:href="#DejaVuSans-20" x="680.521484"/>
     <use xlink:href="#DejaVuSans-b7" x="712.308594"/>
     <use xlink:href="#DejaVuSans-20" x="744.095703"/>
     <use xlink:href="#DejaVuSans-62" x="775.882812"/>
     <use xlink:href="#DejaVuSans-61" x="839.359375"/>
     <use xlink:href="#DejaVuSans-63" x="900.638672"/>
     <use xlink:href="#DejaVuSans-6b" x="955.619141"/>
     <use xlink:href="#DejaVuSans-77" x="1013.529297"/>
     <use xlink:href="#DejaVuSans-61" x="1095.316406"/>
     <use xlink:href="#DejaVuSans-72" x="1156.595703"/>
     <use xlink:href="#DejaVuSans-64" x="1195.958984"/>
     <use xlink:href="#DejaVuSans-73" x="1259.435547"/>
    </g>
   </g>
   <g id="text_19">
    <!-- A2G LoS probability — mixing 3GPP scenarios (TR 36.777, UAV @ 100 m) -->
    <g transform="translate(105.083516 19.44) scale(0.11 -0.11)">
     <defs>
      <path id="DejaVuSans-41" d="M 2188 4044 
L 1331 1722 
L 3047 1722 
L 2188 4044 
z
M 1831 4666 
L 2547 4666 
L 4325 0 
L 3669 0 
L 3244 1197 
L 1141 1197 
L 716 0 
L 50 0 
L 1831 4666 
z
" transform="scale(0.015625)"/>
      <path id="DejaVuSans-47" d="M 3809 666 
L 3809 1919 
L 2778 1919 
L 2778 2438 
L 4434 2438 
L 4434 434 
Q 4069 175 3628 42 
Q 3188 -91 2688 -91 
Q 1594 -91 976 548 
Q 359 1188 359 2328 
Q 359 3472 976 4111 
Q 1594 4750 2688 4750 
Q 3144 4750 3555 4637 
Q 3966 4525 4313 4306 
L 4313 3634 
Q 3963 3931 3569 4081 
Q 3175 4231 2741 4231 
Q 1884 4231 1454 3753 
Q 1025 3275 1025 2328 
Q 1025 1384 1454 906 
Q 1884 428 2741 428 
Q 3075 428 3337 486 
Q 3600 544 3809 666 
z
" transform="scale(0.015625)"/>
      <path id="DejaVuSans-2014" d="M 313 1978 
L 6088 1978 
L 6088 1528 
L 313 1528 
L 313 1978 
z
" transform="scale(0.015625)"/>
      <path id="DejaVuSans-78" d="M 3513 3500 
L 2247 1797 
L 3578 0 
L 2900 0 
L 1881 1375 
L 863 0 
L 184 0 
L 1544 1831 
L 300 3500 
L 978 3500 
L 1906 2253 
L 2834 3500 
L 3513 3500 
z
" transform="scale(0.015625)"/>
      <path id="DejaVuSans-67" d="M 2906 1791 
Q 2906 2416 2648 2759 
Q 2391 3103 1925 3103 
Q 1463 3103 1205 2759 
Q 947 2416 947 1791 
Q 947 1169 1205 825 
Q 1463 481 1925 481 
Q 2391 481 2648 825 
Q 2906 1169 2906 1791 
z
M 3481 434 
Q 3481 -459 3084 -895 
Q 2688 -1331 1869 -1331 
Q 1566 -1331 1297 -1286 
Q 1028 -1241 775 -1147 
L 775 -588 
Q 1028 -725 1275 -790 
Q 1522 -856 1778 -856 
Q 2344 -856 2625 -561 
Q 2906 -266 2906 331 
L 2906 616 
Q 2728 306 2450 153 
Q 2172 0 1784 0 
Q 1141 0 747 490 
Q 353 981 353 1791 
Q 353 2603 747 3093 
Q 1141 3584 1784 3584 
Q 2172 3584 2450 3431 
Q 2728 3278 2906 2969 
L 2906 3500 
L 3481 3500 
L 3481 434 
z
" transform="scale(0.015625)"/>
      <path id="DejaVuSans-50" d="M 1259 4147 
L 1259 2394 
L 2053 2394 
Q 2494 2394 2734 2622 
Q 2975 2850 2975 3272 
Q 2975 3691 2734 3919 
Q 2494 4147 2053 4147 
L 1259 4147 
z
M 628 4666 
L 2053 4666 
Q 2838 4666 3239 4311 
Q 3641 3956 3641 3272 
Q 3641 2581 3239 2228 
Q 2838 1875 2053 1875 
L 1259 1875 
L 1259 0 
L 628 0 
L 628 4666 
z
" transform="scale(0.015625)"/>
      <path id="DejaVuSans-54" d="M -19 4666 
L 3928 4666 
L 3928 4134 
L 2272 4134 
L 2272 0 
L 1638 0 
L 1638 4134 
L -19 4134 
L -19 4666 
z
" transform="scale(0.015625)"/>
      <path id="DejaVuSans-52" d="M 2841 2188 
Q 3044 2119 3236 1894 
Q 3428 1669 3622 1275 
L 4263 0 
L 3584 0 
L 2988 1197 
Q 2756 1666 2539 1819 
Q 2322 1972 1947 1972 
L 1259 1972 
L 1259 0 
L 628 0 
L 628 4666 
L 2053 4666 
Q 2853 4666 3247 4331 
Q 3641 3997 3641 3322 
Q 3641 2881 3436 2590 
Q 3231 2300 2841 2188 
z
M 1259 4147 
L 1259 2491 
L 2053 2491 
Q 2509 2491 2742 2702 
Q 2975 2913 2975 3322 
Q 2975 3731 2742 3939 
Q 2509 4147 2053 4147 
L 1259 4147 
z
" transform="scale(0.015625)"/>
      <path id="DejaVuSans-37" d="M 525 4666 
L 3525 4666 
L 3525 4397 
L 1831 0 
L 1172 0 
L 2766 4134 
L 525 4134 
L 525 4666 
z
" transform="scale(0.015625)"/>
      <path id="DejaVuSans-2c" d="M 750 794 
L 1409 794 
L 1409 256 
L 897 -744 
L 494 -744 
L 750 256 
L 750 794 
z
" transform="scale(0.015625)"/>
      <path id="DejaVuSans-55" d="M 556 4666 
L 1191 4666 
L 1191 1831 
Q 1191 1081 1462 751 
Q 1734 422 2344 422 
Q 2950 422 3222 751 
Q 3494 1081 3494 1831 
L 3494 4666 
L 4128 4666 
L 4128 1753 
Q 4128 841 3676 375 
Q 3225 -91 2344 -91 
Q 1459 -91 1007 375 
Q 556 841 556 1753 
L 556 4666 
z
" transform="scale(0.015625)"/>
      <path id="DejaVuSans-56" d="M 1831 0 
L 50 4666 
L 709 4666 
L 2188 738 
L 3669 4666 
L 4325 4666 
L 2547 0 
L 1831 0 
z
" transform="scale(0.015625)"/>
      <path id="DejaVuSans-40" d="M 2381 1678 
Q 2381 1231 2603 976 
Q 2825 722 3213 722 
Q 3597 722 3817 978 
Q 4038 1234 4038 1678 
Q 4038 2116 3813 2373 
Q 3588 2631 3206 2631 
Q 2828 2631 2604 2375 
Q 2381 2119 2381 1678 
z
M 4084 744 
Q 3897 503 3655 389 
Q 3413 275 3091 275 
Q 2553 275 2217 664 
Q 1881 1053 1881 1678 
Q 1881 2303 2218 2693 
Q 2556 3084 3091 3084 
Q 3413 3084 3656 2967 
Q 3900 2850 4084 2613 
L 4084 3022 
L 4531 3022 
L 4531 722 
Q 4988 791 5245 1139 
Q 5503 1488 5503 2041 
Q 5503 2375 5404 2669 
Q 5306 2963 5106 3213 
Q 4781 3622 4314 3839 
Q 3847 4056 3297 4056 
Q 2913 4056 2559 3954 
Q 2206 3853 1906 3653 
Q 1416 3334 1139 2817 
Q 863 2300 863 1697 
Q 863 1200 1042 765 
Q 1222 331 1563 0 
Q 1891 -325 2322 -495 
Q 2753 -666 3244 -666 
Q 3647 -666 4036 -530 
Q 4425 -394 4750 -141 
L 5031 -488 
Q 4641 -791 4180 -952 
Q 3719 -1113 3244 -1113 
Q 2666 -1113 2153 -908 
Q 1641 -703 1241 -313 
Q 841 78 631 592 
Q 422 1106 422 1697 
Q 422 2266 634 2781 
Q 847 3297 1241 3688 
Q 1644 4084 2172 4295 
Q 2700 4506 3291 4506 
Q 3953 4506 4520 4234 
Q 5088 3963 5472 3463 
Q 5706 3156 5829 2797 
Q 5953 2438 5953 2053 
Q 5953 1231 5456 756 
Q 4959 281 4084 263 
L 4084 744 
z
" transform="scale(0.015625)"/>
     </defs>
     <use xlink:href="#DejaVuSans-41"/>
     <use xlink:href="#DejaVuSans-32" x="68.408203"/>
     <use xlink:href="#DejaVuSans-47" x="132.03125"/>
     <use xlink:href="#DejaVuSans-20" x="209.521484"/>
     <use xlink:href="#DejaVuSans-4c" x="241.308594"/>
     <use xlink:href="#DejaVuSans-6f" x="295.271484"/>
     <use xlink:href="#DejaVuSans-53" x="356.453125"/>
     <use xlink:href="#DejaVuSans-20" x="419.929688"/>
     <use xlink:href="#DejaVuSans-70" x="451.716797"/>
     <use xlink:href="#DejaVuSans-72" x="515.193359"/>
     <use xlink:href="#DejaVuSans-6f" x="554.056641"/>
     <use xlink:href="#DejaVuSans-62" x="615.238281"/>
     <use xlink:href="#DejaVuSans-61" x="678.714844"/>
     <use xlink:href="#DejaVuSans-62" x="739.994141"/>
     <use xlink:href="#DejaVuSans-69" x="803.470703"/>
     <use xlink:href="#DejaVuSans-6c" x="831.253906"/>
     <use xlink:href="#DejaVuSans-69" x="859.037109"/>
     <use xlink:href="#DejaVuSans-74" x="886.820312"/>
     <use xlink:href="#DejaVuSans-79" x="926.029297"/>
     <use xlink:href="#DejaVuSans-20" x="985.208984"/>
     <use xlink:href="#DejaVuSans-2014" x="1016.996094"/>
     <use xlink:href="#DejaVuSans-20" x="1116.996094"/>
     <use xlink:href="#DejaVuSans-6d" x="1148.783203"/>
     <use xlink:href="#DejaVuSans-69" x="1246.195312"/>
     <use xlink:href="#DejaVuSans-78" x="1273.978516"/>
     <use xlink:href="#DejaVuSans-69" x="1333.158203"/>
     <use xlink:href="#DejaVuSans-6e" x="1360.941406"/>
     <use xlink:href="#DejaVuSans-67" x="1424.320312"/>
     <use xlink:href="#DejaVuSans-20" x="1487.796875"/>
     <use xlink:href="#DejaVuSans-33" x="1519.583984"/>
     <use xlink:href="#DejaVuSans-47" x="1583.207031"/>
     <use xlink:href="#DejaVuSans-50" x="1660.697266"/>
     <use xlink:href="#DejaVuSans-50" x="1721"/>
     <use xlink:href="#DejaVuSans-20" x="1781.302734"/>
     <use xlink:href="#DejaVuSans-73" x="1813.089844"/>
     <use xlink:href="#DejaVuSans-63" x="1865.189453"/>
     <use xlink:href="#DejaVuSans-65" x="1920.169922"/>
     <use xlink:href="#DejaVuSans-6e" x="1981.693359"/>
     <use xlink:href="#DejaVuSans-61" x="2045.072266"/>
     <use xlink:href="#DejaVuSans-72" x="2106.351562"/>
     <use xlink:href="#DejaVuSans-69" x="2147.464844"/>
     <use xlink:href="#DejaVuSans-6f" x="2175.248047"/>
     <use xlink:href="#DejaVuSans-73" x="2236.429688"/>
     <use xlink:href="#DejaVuSans-20" x="2288.529297"/>
     <use xlink:href="#DejaVuSans-28" x="2320.316406"/>
     <use xlink:href="#DejaVuSans-54" x="2359.330078"/>
     <use xlink:href="#DejaVuSans-52" x="2420.414062"/>
     <use xlink:href="#DejaVuSans-20" x="2489.896484"/>
     <use xlink:href="#DejaVuSans-33" x="2521.683594"/>
     <use xlink:href="#DejaVuSans-36" x="2585.306641"/>
     <use xlink:href="#DejaVuSans-2e" x="2648.929688"/>
     <use xlink:href="#DejaVuSans-37" x="2680.716797"/>
     <use xlink:href="#DejaVuSans-37" x="2744.339844"/>
     <use xlink:href="#DejaVuSans-37" x="2807.962891"/>
     <use xlink:href="#DejaVuSans-2c" x="2871.585938"/>
     <use xlink:href="#DejaVuSans-20" x="2903.373047"/>
     <use xlink:href="#DejaVuSans-55" x="2935.160156"/>
     <use xlink:href="#DejaVuSans-41" x="3008.353516"/>
     <use xlink:href="#DejaVuSans-56" x="3070.386719"/>
     <use xlink:href="#DejaVuSans-20" x="3138.794922"/>
     <use xlink:href="#DejaVuSans-40" x="3170.582031"/>
     <use xlink:href="#DejaVuSans-20" x="3270.582031"/>
     <use xlink:href="#DejaVuSans-31" x="3302.369141"/>
     <use xlink:href="#DejaVuSans-30" x="3365.992188"/>
     <use xlink:href="#DejaVuSans-30" x="3429.615234"/>
     <use xlink:href="#DejaVuSans-20" x="3493.238281"/>
     <use xlink:href="#DejaVuSans-6d" x="3525.025391"/>
     <use xlink:href="#DejaVuSans-29" x="3622.4375"/>
    </g>
   </g>
   <g id="PathCollection_1">
    <defs>
     <path id="C0_0_25b68e6cf0" d="M 0 3.354102 
C 0.889518 3.354102 1.742724 3.000693 2.371708 2.371708 
C 3.000693 1.742724 3.354102 0.889518 3.354102 -0 
C 3.354102 -0.889518 3.000693 -1.742724 2.371708 -2.371708 
C 1.742724 -3.000693 0.889518 -3.354102 0 -3.354102 
C -0.889518 -3.354102 -1.742724 -3.000693 -2.371708 -2.371708 
C -3.000693 -1.742724 -3.354102 -0.889518 -3.354102 0 
C -3.354102 0.889518 -3.000693 1.742724 -2.371708 2.371708 
C -1.742724 3.000693 -0.889518 3.354102 0 3.354102 
z
"/>
    </defs>
    <g clip-path="url(#pcc4c39c008)">
     <use xlink:href="#C0_0_25b68e6cf0" x="189.027765" y="73.257051" style="fill: #16a34a; stroke: #16a34a"/>
    </g>
    <g clip-path="url(#pcc4c39c008)">
     <use xlink:href="#C0_0_25b68e6cf0" x="189.027765" y="245.052883" style="fill: #dc2626; stroke: #dc2626"/>
    </g>
   </g>
   <g id="legend_1">
    <g id="patch_8">
     <path d="M 348.890625 59.060625 
L 558.9 59.060625 
Q 560.7 59.060625 560.7 57.260625 
L 560.7 31.74 
Q 560.7 29.94 558.9 29.94 
L 348.890625 29.94 
Q 347.090625 29.94 347.090625 31.74 
L 347.090625 57.260625 
Q 347.090625 59.060625 348.890625 59.060625 
z
" style="fill: #ffffff; opacity: 0.8; stroke: #cccccc; stroke-linejoin: miter"/>
    </g>
    <g id="line2d_33">
     <path d="M 350.690625 37.228594 
L 359.690625 37.228594 
L 368.690625 37.228594 
" style="fill: none; stroke: #16a34a; stroke-width: 2.2; stroke-linecap: square"/>
    </g>
    <g id="text_20">
     <!-- UMa-AV — correct (stays in line of sight) -->
     <g transform="translate(375.890625 40.378594) scale(0.09 -0.09)">
      <defs>
       <path id="DejaVuSans-4d" d="M 628 4666 
L 1569 4666 
L 2759 1491 
L 3956 4666 
L 4897 4666 
L 4897 0 
L 4281 0 
L 4281 4097 
L 3078 897 
L 2444 897 
L 1241 4097 
L 1241 0 
L 628 0 
L 628 4666 
z
" transform="scale(0.015625)"/>
       <path id="DejaVuSans-2d" d="M 313 2009 
L 1997 2009 
L 1997 1497 
L 313 1497 
L 313 2009 
z
" transform="scale(0.015625)"/>
       <path id="DejaVuSans-68" d="M 3513 2113 
L 3513 0 
L 2938 0 
L 2938 2094 
Q 2938 2591 2744 2837 
Q 2550 3084 2163 3084 
Q 1697 3084 1428 2787 
Q 1159 2491 1159 1978 
L 1159 0 
L 581 0 
L 581 4863 
L 1159 4863 
L 1159 2956 
Q 1366 3272 1645 3428 
Q 1925 3584 2291 3584 
Q 2894 3584 3203 3211 
Q 3513 2838 3513 2113 
z
" transform="scale(0.015625)"/>
      </defs>
      <use xlink:href="#DejaVuSans-55"/>
      <use xlink:href="#DejaVuSans-4d" x="73.193359"/>
      <use xlink:href="#DejaVuSans-61" x="159.472656"/>
      <use xlink:href="#DejaVuSans-2d" x="220.751953"/>
      <use xlink:href="#DejaVuSans-41" x="254.585938"/>
      <use xlink:href="#DejaVuSans-56" x="316.619141"/>
      <use xlink:href="#DejaVuSans-20" x="385.027344"/>
      <use xlink:href="#DejaVuSans-2014" x="416.814453"/>
      <use xlink:href="#DejaVuSans-20" x="516.814453"/>
      <use xlink:href="#DejaVuSans-63" x="548.601562"/>
      <use xlink:href="#DejaVuSans-6f" x="603.582031"/>
      <use xlink:href="#DejaVuSans-72" x="664.763672"/>
      <use xlink:href="#DejaVuSans-72" x="704.126953"/>
      <use xlink:href="#DejaVuSans-65" x="742.990234"/>
      <use xlink:href="#DejaVuSans-63" x="804.513672"/>
      <use xlink:href="#DejaVuSans-74" x="859.494141"/>
      <use xlink:href="#DejaVuSans-20" x="898.703125"/>
      <use xlink:href="#DejaVuSans-28" x="930.490234"/>
      <use xlink:href="#DejaVuSans-73" x="969.503906"/>
      <use xlink:href="#DejaVuSans-74" x="1021.603516"/>
      <use xlink:href="#DejaVuSans-61" x="1060.8125"/>
      <use xlink:href="#DejaVuSans-79" x="1122.091797"/>
      <use xlink:href="#DejaVuSans-73" x="1181.271484"/>
      <use xlink:href="#DejaVuSans-20" x="1233.371094"/>
      <use xlink:href="#DejaVuSans-69" x="1265.158203"/>
      <use xlink:href="#DejaVuSans-6e" x="1292.941406"/>
      <use xlink:href="#DejaVuSans-20" x="1356.320312"/>
      <use xlink:href="#DejaVuSans-6c" x="1388.107422"/>
      <use xlink:href="#DejaVuSans-69" x="1415.890625"/>
      <use xlink:href="#DejaVuSans-6e" x="1443.673828"/>
      <use xlink:href="#DejaVuSans-65" x="1507.052734"/>
      <use xlink:href="#DejaVuSans-20" x="1568.576172"/>
      <use xlink:href="#DejaVuSans-6f" x="1600.363281"/>
      <use xlink:href="#DejaVuSans-66" x="1661.544922"/>
      <use xlink:href="#DejaVuSans-20" x="1696.75"/>
      <use xlink:href="#DejaVuSans-73" x="1728.537109"/>
      <use xlink:href="#DejaVuSans-69" x="1780.636719"/>
      <use xlink:href="#DejaVuSans-67" x="1808.419922"/>
      <use xlink:href="#DejaVuSans-68" x="1871.896484"/>
      <use xlink:href="#DejaVuSans-74" x="1935.275391"/>
      <use xlink:href="#DejaVuSans-29" x="1974.484375"/>
     </g>
    </g>
    <g id="line2d_34">
     <path d="M 350.690625 50.438906 
L 359.690625 50.438906 
L 368.690625 50.438906 
" style="fill: none; stroke-dasharray: 8.14,3.52; stroke-dashoffset: 0; stroke: #dc2626; stroke-width: 2.2"/>
    </g>
    <g id="text_21">
     <!-- UMi-AV — the AI's mix (collapses) -->
     <g transform="translate(375.890625 53.588906) scale(0.09 -0.09)">
      <defs>
       <path id="DejaVuSans-49" d="M 628 4666 
L 1259 4666 
L 1259 0 
L 628 0 
L 628 4666 
z
" transform="scale(0.015625)"/>
       <path id="DejaVuSans-27" d="M 1147 4666 
L 1147 2931 
L 616 2931 
L 616 4666 
L 1147 4666 
z
" transform="scale(0.015625)"/>
      </defs>
      <use xlink:href="#DejaVuSans-55"/>
      <use xlink:href="#DejaVuSans-4d" x="73.193359"/>
      <use xlink:href="#DejaVuSans-69" x="159.472656"/>
      <use xlink:href="#DejaVuSans-2d" x="187.255859"/>
      <use xlink:href="#DejaVuSans-41" x="221.089844"/>
      <use xlink:href="#DejaVuSans-56" x="283.123047"/>
      <use xlink:href="#DejaVuSans-20" x="351.53125"/>
      <use xlink:href="#DejaVuSans-2014" x="383.318359"/>
      <use xlink:href="#DejaVuSans-20" x="483.318359"/>
      <use xlink:href="#DejaVuSans-74" x="515.105469"/>
      <use xlink:href="#DejaVuSans-68" x="554.314453"/>
      <use xlink:href="#DejaVuSans-65" x="617.693359"/>
      <use xlink:href="#DejaVuSans-20" x="679.216797"/>
      <use xlink:href="#DejaVuSans-41" x="711.003906"/>
      <use xlink:href="#DejaVuSans-49" x="779.412109"/>
      <use xlink:href="#DejaVuSans-27" x="808.904297"/>
      <use xlink:href="#DejaVuSans-73" x="836.394531"/>
      <use xlink:href="#DejaVuSans-20" x="888.494141"/>
      <use xlink:href="#DejaVuSans-6d" x="920.28125"/>
      <use xlink:href="#DejaVuSans-69" x="1017.693359"/>
      <use xlink:href="#DejaVuSans-78" x="1045.476562"/>
      <use xlink:href="#DejaVuSans-20" x="1104.65625"/>
      <use xlink:href="#DejaVuSans-28" x="1136.443359"/>
      <use xlink:href="#DejaVuSans-63" x="1175.457031"/>
      <use xlink:href="#DejaVuSans-6f" x="1230.4375"/>
      <use xlink:href="#DejaVuSans-6c" x="1291.619141"/>
      <use xlink:href="#DejaVuSans-6c" x="1319.402344"/>
      <use xlink:href="#DejaVuSans-61" x="1347.185547"/>
      <use xlink:href="#DejaVuSans-70" x="1408.464844"/>
      <use xlink:href="#DejaVuSans-73" x="1471.941406"/>
      <use xlink:href="#DejaVuSans-65" x="1524.041016"/>
      <use xlink:href="#DejaVuSans-73" x="1585.564453"/>
      <use xlink:href="#DejaVuSans-29" x="1637.664062"/>
     </g>
    </g>
   </g>
  </g>
 </g>
 <defs>
  <clipPath id="pcc4c39c008">
   <rect x="47.72" y="25.44" width="517.48" height="292.6"/>
  </clipPath>
 </defs>
</svg>
