<?xml version="1.0" encoding="utf-8" standalone="no"?>
<!DOCTYPE svg PUBLIC "-//W3C//DTD SVG 1.1//EN"
  "http://www.w3.org/Graphics/SVG/1.1/DTD/svg11.dtd">
<svg xmlns:xlink="http://www.w3.org/1999/xlink" width="540pt" height="432pt" viewBox="0 0 540 432" xmlns="http://www.w3.org/2000/svg" version="1.1">
 <metadata>
  <rdf:RDF xmlns:dc="http://purl.org/dc/elements/1.1/" xmlns:cc="http://creativecommons.org/ns#" xmlns:rdf="http://www.w3.org/1999/02/22-rdf-syntax-ns#">
   <cc:Work>
    <dc:type rdf:resource="http://purl.org/dc/dcmitype/StillImage"/>
    <dc:date>2026-07-06T18:03:02.509956</dc:date>
    <dc:format>image/svg+xml</dc:format>
    <dc:creator>
     <cc:Agent>
      <dc:title>Matplotlib v3.9.4, https://matplotlib.org/</dc:title>
     </cc:Agent>
    </dc:creator>
   </cc:Work>
  </rdf:RDF>
 </metadata>
 <defs>
  <style type="text/css">*{stroke-linejoin: round; stroke-linecap: butt}</style>
 </defs>
 <g id="figure_1">
  <g id="patch_1">
   <path d="M 0 432 
L 540 432 
L 540 0 
L 0 0 
z
" style="fill: #ffffff"/>
  </g>
  <g id="axes_1">
   <g id="patch_2">
    <path d="M 216.097705 390.04 
L 323.902295 390.04 
L 323.902295 24.72 
L 216.097705 24.72 
z
" style="fill: #ffffff"/>
   </g>
   <g id="matplotlib.axis_1">
    <g id="xtick_1">
     <g id="line2d_1">
      <path d="M 257.966 390.04 
L 257.966 24.72 
" clip-path="url(#p3d4bdd3087)" style="fill: none; stroke: #b0b0b0; stroke-opacity: 0.15; stroke-width: 0.8; stroke-linecap: square"/>
     </g>
     <g id="line2d_2">
      <defs>
       <path id="m883d96a6eb" d="M 0 0 
L 0 3.5 
" style="stroke: #000000; stroke-width: 0.8"/>
      </defs>
      <g>
       <use xlink:href="#m883d96a6eb" x="257.966" y="390.04" style="stroke: #000000; stroke-width: 0.8"/>
      </g>
     </g>
     <g id="text_1">
      <!-- 0.0 -->
      <g transform="translate(250.014438 404.638438) scale(0.1 -0.1)">
       <defs>
        <path id="DejaVuSans-30" d="M 2034 4250 
Q 1547 4250 1301 3770 
Q 1056 3291 1056 2328 
Q 1056 1369 1301 889 
Q 1547 409 2034 409 
Q 2525 409 2770 889 
Q 3016 1369 3016 2328 
Q 3016 3291 2770 3770 
Q 2525 4250 2034 4250 
z
M 2034 4750 
Q 2819 4750 3233 4129 
Q 3647 3509 3647 2328 
Q 3647 1150 3233 529 
Q 2819 -91 2034 -91 
Q 1250 -91 836 529 
Q 422 1150 422 2328 
Q 422 3509 836 4129 
Q 1250 4750 2034 4750 
z
" transform="scale(0.015625)"/>
        <path id="DejaVuSans-2e" d="M 684 794 
L 1344 794 
L 1344 0 
L 684 0 
L 684 794 
z
" transform="scale(0.015625)"/>
       </defs>
       <use xlink:href="#DejaVuSans-30"/>
       <use xlink:href="#DejaVuSans-2e" x="63.623047"/>
       <use xlink:href="#DejaVuSans-30" x="95.410156"/>
      </g>
     </g>
    </g>
    <g id="xtick_2">
     <g id="line2d_3">
      <path d="M 319.002087 390.04 
L 319.002087 24.72 
" clip-path="url(#p3d4bdd3087)" style="fill: none; stroke: #b0b0b0; stroke-opacity: 0.15; stroke-width: 0.8; stroke-linecap: square"/>
     </g>
     <g id="line2d_4">
      <g>
       <use xlink:href="#m883d96a6eb" x="319.002087" y="390.04" style="stroke: #000000; stroke-width: 0.8"/>
      </g>
     </g>
     <g id="text_2">
      <!-- 0.5 -->
      <g transform="translate(311.050524 404.638438) scale(0.1 -0.1)">
       <defs>
        <path id="DejaVuSans-35" d="M 691 4666 
L 3169 4666 
L 3169 4134 
L 1269 4134 
L 1269 2991 
Q 1406 3038 1543 3061 
Q 1681 3084 1819 3084 
Q 2600 3084 3056 2656 
Q 3513 2228 3513 1497 
Q 3513 744 3044 326 
Q 2575 -91 1722 -91 
Q 1428 -91 1123 -41 
Q 819 9 494 109 
L 494 744 
Q 775 591 1075 516 
Q 1375 441 1709 441 
Q 2250 441 2565 725 
Q 2881 1009 2881 1497 
Q 2881 1984 2565 2268 
Q 2250 2553 1709 2553 
Q 1456 2553 1204 2497 
Q 953 2441 691 2322 
L 691 4666 
z
" transform="scale(0.015625)"/>
       </defs>
       <use xlink:href="#DejaVuSans-30"/>
       <use xlink:href="#DejaVuSans-2e" x="63.623047"/>
       <use xlink:href="#DejaVuSans-35" x="95.410156"/>
      </g>
     </g>
    </g>
    <g id="text_3">
     <!-- x (km) -->
     <g transform="translate(253.784375 418.316562) scale(0.1 -0.1)">
      <defs>
       <path id="DejaVuSans-78" d="M 3513 3500 
L 2247 1797 
L 3578 0 
L 2900 0 
L 1881 1375 
L 863 0 
L 184 0 
L 1544 1831 
L 300 3500 
L 978 3500 
L 1906 2253 
L 2834 3500 
L 3513 3500 
z
" transform="scale(0.015625)"/>
       <path id="DejaVuSans-20" transform="scale(0.015625)"/>
       <path id="DejaVuSans-28" d="M 1984 4856 
Q 1566 4138 1362 3434 
Q 1159 2731 1159 2009 
Q 1159 1288 1364 580 
Q 1569 -128 1984 -844 
L 1484 -844 
Q 1016 -109 783 600 
Q 550 1309 550 2009 
Q 550 2706 781 3412 
Q 1013 4119 1484 4856 
L 1984 4856 
z
" transform="scale(0.015625)"/>
       <path id="DejaVuSans-6b" d="M 581 4863 
L 1159 4863 
L 1159 1991 
L 2875 3500 
L 3609 3500 
L 1753 1863 
L 3688 0 
L 2938 0 
L 1159 1709 
L 1159 0 
L 581 0 
L 581 4863 
z
" transform="scale(0.015625)"/>
       <path id="DejaVuSans-6d" d="M 3328 2828 
Q 3544 3216 3844 3400 
Q 4144 3584 4550 3584 
Q 5097 3584 5394 3201 
Q 5691 2819 5691 2113 
L 5691 0 
L 5113 0 
L 5113 2094 
Q 5113 2597 4934 2840 
Q 4756 3084 4391 3084 
Q 3944 3084 3684 2787 
Q 3425 2491 3425 1978 
L 3425 0 
L 2847 0 
L 2847 2094 
Q 2847 2600 2669 2842 
Q 2491 3084 2119 3084 
Q 1678 3084 1418 2786 
Q 1159 2488 1159 1978 
L 1159 0 
L 581 0 
L 581 3500 
L 1159 3500 
L 1159 2956 
Q 1356 3278 1631 3431 
Q 1906 3584 2284 3584 
Q 2666 3584 2933 3390 
Q 3200 3197 3328 2828 
z
" transform="scale(0.015625)"/>
       <path id="DejaVuSans-29" d="M 513 4856 
L 1013 4856 
Q 1481 4119 1714 3412 
Q 1947 2706 1947 2009 
Q 1947 1309 1714 600 
Q 1481 -109 1013 -844 
L 513 -844 
Q 928 -128 1133 580 
Q 1338 1288 1338 2009 
Q 1338 2731 1133 3434 
Q 928 4138 513 4856 
z
" transform="scale(0.015625)"/>
      </defs>
      <use xlink:href="#DejaVuSans-78"/>
      <use xlink:href="#DejaVuSans-20" x="59.179688"/>
      <use xlink:href="#DejaVuSans-28" x="90.966797"/>
      <use xlink:href="#DejaVuSans-6b" x="129.980469"/>
      <use xlink:href="#DejaVuSans-6d" x="187.890625"/>
      <use xlink:href="#DejaVuSans-29" x="285.302734"/>
     </g>
    </g>
   </g>
   <g id="matplotlib.axis_2">
    <g id="ytick_1">
     <g id="line2d_5">
      <path d="M 216.097705 346.505885 
L 323.902295 346.505885 
" clip-path="url(#p3d4bdd3087)" style="fill: none; stroke: #b0b0b0; stroke-opacity: 0.15; stroke-width: 0.8; stroke-linecap: square"/>
     </g>
     <g id="line2d_6">
      <defs>
       <path id="m1609fd1a6b" d="M 0 0 
L -3.5 0 
" style="stroke: #000000; stroke-width: 0.8"/>
      </defs>
      <g>
       <use xlink:href="#m1609fd1a6b" x="216.097705" y="346.505885" style="stroke: #000000; stroke-width: 0.8"/>
      </g>
     </g>
     <g id="text_4">
      <!-- −1.0 -->
      <g transform="translate(184.814892 350.305104) scale(0.1 -0.1)">
       <defs>
        <path id="DejaVuSans-2212" d="M 678 2272 
L 4684 2272 
L 4684 1741 
L 678 1741 
L 678 2272 
z
" transform="scale(0.015625)"/>
        <path id="DejaVuSans-31" d="M 794 531 
L 1825 531 
L 1825 4091 
L 703 3866 
L 703 4441 
L 1819 4666 
L 2450 4666 
L 2450 531 
L 3481 531 
L 3481 0 
L 794 0 
L 794 531 
z
" transform="scale(0.015625)"/>
       </defs>
       <use xlink:href="#DejaVuSans-2212"/>
       <use xlink:href="#DejaVuSans-31" x="83.789062"/>
       <use xlink:href="#DejaVuSans-2e" x="147.412109"/>
       <use xlink:href="#DejaVuSans-30" x="179.199219"/>
      </g>
     </g>
    </g>
    <g id="ytick_2">
     <g id="line2d_7">
      <path d="M 216.097705 285.469799 
L 323.902295 285.469799 
" clip-path="url(#p3d4bdd3087)" style="fill: none; stroke: #b0b0b0; stroke-opacity: 0.15; stroke-width: 0.8; stroke-linecap: square"/>
     </g>
     <g id="line2d_8">
      <g>
       <use xlink:href="#m1609fd1a6b" x="216.097705" y="285.469799" style="stroke: #000000; stroke-width: 0.8"/>
      </g>
     </g>
     <g id="text_5">
      <!-- −0.5 -->
      <g transform="translate(184.814892 289.269018) scale(0.1 -0.1)">
       <use xlink:href="#DejaVuSans-2212"/>
       <use xlink:href="#DejaVuSans-30" x="83.789062"/>
       <use xlink:href="#DejaVuSans-2e" x="147.412109"/>
       <use xlink:href="#DejaVuSans-35" x="179.199219"/>
      </g>
     </g>
    </g>
    <g id="ytick_3">
     <g id="line2d_9">
      <path d="M 216.097705 224.433713 
L 323.902295 224.433713 
" clip-path="url(#p3d4bdd3087)" style="fill: none; stroke: #b0b0b0; stroke-opacity: 0.15; stroke-width: 0.8; stroke-linecap: square"/>
     </g>
     <g id="line2d_10">
      <g>
       <use xlink:href="#m1609fd1a6b" x="216.097705" y="224.433713" style="stroke: #000000; stroke-width: 0.8"/>
      </g>
     </g>
     <g id="text_6">
      <!-- 0.0 -->
      <g transform="translate(193.19458 228.232932) scale(0.1 -0.1)">
       <use xlink:href="#DejaVuSans-30"/>
       <use xlink:href="#DejaVuSans-2e" x="63.623047"/>
       <use xlink:href="#DejaVuSans-30" x="95.410156"/>
      </g>
     </g>
    </g>
    <g id="ytick_4">
     <g id="line2d_11">
      <path d="M 216.097705 163.397627 
L 323.902295 163.397627 
" clip-path="url(#p3d4bdd3087)" style="fill: none; stroke: #b0b0b0; stroke-opacity: 0.15; stroke-width: 0.8; stroke-linecap: square"/>
     </g>
     <g id="line2d_12">
      <g>
       <use xlink:href="#m1609fd1a6b" x="216.097705" y="163.397627" style="stroke: #000000; stroke-width: 0.8"/>
      </g>
     </g>
     <g id="text_7">
      <!-- 0.5 -->
      <g transform="translate(193.19458 167.196846) scale(0.1 -0.1)">
       <use xlink:href="#DejaVuSans-30"/>
       <use xlink:href="#DejaVuSans-2e" x="63.623047"/>
       <use xlink:href="#DejaVuSans-35" x="95.410156"/>
      </g>
     </g>
    </g>
    <g id="ytick_5">
     <g id="line2d_13">
      <path d="M 216.097705 102.361541 
L 323.902295 102.361541 
" clip-path="url(#p3d4bdd3087)" style="fill: none; stroke: #b0b0b0; stroke-opacity: 0.15; stroke-width: 0.8; stroke-linecap: square"/>
     </g>
     <g id="line2d_14">
      <g>
       <use xlink:href="#m1609fd1a6b" x="216.097705" y="102.361541" style="stroke: #000000; stroke-width: 0.8"/>
      </g>
     </g>
     <g id="text_8">
      <!-- 1.0 -->
      <g transform="translate(193.19458 106.160759) scale(0.1 -0.1)">
       <use xlink:href="#DejaVuSans-31"/>
       <use xlink:href="#DejaVuSans-2e" x="63.623047"/>
       <use xlink:href="#DejaVuSans-30" x="95.410156"/>
      </g>
     </g>
    </g>
    <g id="ytick_6">
     <g id="line2d_15">
      <path d="M 216.097705 41.325455 
L 323.902295 41.325455 
" clip-path="url(#p3d4bdd3087)" style="fill: none; stroke: #b0b0b0; stroke-opacity: 0.15; stroke-width: 0.8; stroke-linecap: square"/>
     </g>
     <g id="line2d_16">
      <g>
       <use xlink:href="#m1609fd1a6b" x="216.097705" y="41.325455" style="stroke: #000000; stroke-width: 0.8"/>
      </g>
     </g>
     <g id="text_9">
      <!-- 1.5 -->
      <g transform="translate(193.19458 45.124673) scale(0.1 -0.1)">
       <use xlink:href="#DejaVuSans-31"/>
       <use xlink:href="#DejaVuSans-2e" x="63.623047"/>
       <use xlink:href="#DejaVuSans-35" x="95.410156"/>
      </g>
     </g>
    </g>
    <g id="text_10">
     <!-- y (km) -->
     <g transform="translate(178.735205 223.595625) rotate(-90) scale(0.1 -0.1)">
      <defs>
       <path id="DejaVuSans-79" d="M 2059 -325 
Q 1816 -950 1584 -1140 
Q 1353 -1331 966 -1331 
L 506 -1331 
L 506 -850 
L 844 -850 
Q 1081 -850 1212 -737 
Q 1344 -625 1503 -206 
L 1606 56 
L 191 3500 
L 800 3500 
L 1894 763 
L 2988 3500 
L 3597 3500 
L 2059 -325 
z
" transform="scale(0.015625)"/>
      </defs>
      <use xlink:href="#DejaVuSans-79"/>
      <use xlink:href="#DejaVuSans-20" x="59.179688"/>
      <use xlink:href="#DejaVuSans-28" x="90.966797"/>
      <use xlink:href="#DejaVuSans-6b" x="129.980469"/>
      <use xlink:href="#DejaVuSans-6d" x="187.890625"/>
      <use xlink:href="#DejaVuSans-29" x="285.302734"/>
     </g>
    </g>
   </g>
   <g id="patch_3">
    <path d="M 216.097705 390.04 
L 216.097705 24.72 
" style="fill: none; stroke: #000000; stroke-width: 0.8; stroke-linejoin: miter; stroke-linecap: square"/>
   </g>
   <g id="patch_4">
    <path d="M 323.902295 390.04 
L 323.902295 24.72 
" style="fill: none; stroke: #000000; stroke-width: 0.8; stroke-linejoin: miter; stroke-linecap: square"/>
   </g>
   <g id="patch_5">
    <path d="M 216.097705 390.04 
L 323.902295 390.04 
" style="fill: none; stroke: #000000; stroke-width: 0.8; stroke-linejoin: miter; stroke-linecap: square"/>
   </g>
   <g id="patch_6">
    <path d="M 216.097705 24.72 
L 323.902295 24.72 
" style="fill: none; stroke: #000000; stroke-width: 0.8; stroke-linejoin: miter; stroke-linecap: square"/>
   </g>
   <g id="patch_7">
    <path d="M 260.658437 303.947259 
Q 275.655667 278.114117 289.060928 255.023188 
" style="fill: none; opacity: 0.75; stroke: #dc2626; stroke-width: 2.836068; stroke-linecap: round"/>
    <path d="M 285.322997 257.478361 
L 289.060928 255.023188 
L 288.782307 259.486636 
z
" style="fill: #dc2626; opacity: 0.75; stroke: #dc2626; stroke-width: 2.836068; stroke-linecap: round"/>
   </g>
   <g id="patch_8">
    <path d="M 260.626368 303.928532 
Q 266.538593 293.647106 270.870174 286.114437 
" style="fill: none; opacity: 0.75; stroke: #2563eb; stroke-width: 2.836068; stroke-linecap: round"/>
    <path d="M 267.142404 288.58501 
L 270.870174 286.114437 
L 270.60997 290.578997 
z
" style="fill: #2563eb; opacity: 0.75; stroke: #2563eb; stroke-width: 2.836068; stroke-linecap: round"/>
   </g>
   <g id="patch_9">
    <path d="M 276.111435 226.497971 
Q 270.241988 196.546142 265.33425 171.501918 
" style="fill: none; opacity: 0.75; stroke: #2563eb; stroke-width: 4.472983; stroke-linecap: round"/>
    <path d="M 264.140801 175.81187 
L 265.33425 171.501918 
L 268.066141 175.042649 
z
" style="fill: #2563eb; opacity: 0.75; stroke: #2563eb; stroke-width: 4.472983; stroke-linecap: round"/>
   </g>
   <g id="patch_10">
    <path d="M 285.79992 239.538559 
Q 286.508039 239.913289 281.49215 237.258926 
" style="fill: none; opacity: 0.75; stroke: #2563eb; stroke-width: 5.792386; stroke-linecap: round"/>
    <path d="M 278.892147 233.620247 
L 281.49215 237.258926 
L 277.021206 237.155721 
z
" style="fill: #2563eb; opacity: 0.75; stroke: #2563eb; stroke-width: 5.792386; stroke-linecap: round"/>
   </g>
   <g id="patch_11">
    <path d="M 271.667704 228.777474 
Q 249.420809 205.176755 228.970974 183.482458 
" style="fill: none; opacity: 0.75; stroke: #dc2626; stroke-width: 2.343309; stroke-linecap: round"/>
    <path d="M 230.259346 187.764992 
L 228.970974 183.482458 
L 233.170025 185.02128 
z
" style="fill: #dc2626; opacity: 0.75; stroke: #dc2626; stroke-width: 2.343309; stroke-linecap: round"/>
   </g>
   <g id="patch_12">
    <path d="M 248.537573 118.842816 
Q 280.743133 83.413777 311.184941 49.925024 
" style="fill: none; opacity: 0.75; stroke: #dc2626; stroke-width: 2.345299; stroke-linecap: round"/>
    <path d="M 307.014436 51.53961 
L 311.184941 49.925024 
L 309.974307 54.23018 
z
" style="fill: #dc2626; opacity: 0.75; stroke: #dc2626; stroke-width: 2.345299; stroke-linecap: round"/>
   </g>
   <g id="patch_13">
    <path d="M 248.537573 118.842816 
Q 280.743133 83.413777 309.134843 52.180319 
" style="fill: none; opacity: 0.75; stroke: #2563eb; stroke-width: 5.071359; stroke-linecap: round"/>
    <path d="M 304.964338 53.794905 
L 309.134843 52.180319 
L 307.924208 56.485474 
z
" style="fill: #2563eb; opacity: 0.75; stroke: #2563eb; stroke-width: 5.071359; stroke-linecap: round"/>
   </g>
   <g id="patch_14">
    <path d="M 250.261766 120.979565 
Q 253.495309 119.098934 256.068435 117.602402 
" style="fill: none; opacity: 0.75; stroke: #dc2626; stroke-width: 0.683333; stroke-linecap: round"/>
    <path d="M 251.605208 117.884554 
L 256.068435 117.602402 
L 253.616221 121.342275 
z
" style="fill: #dc2626; opacity: 0.75; stroke: #dc2626; stroke-width: 0.683333; stroke-linecap: round"/>
   </g>
   <g id="patch_15">
    <path d="M 296.957797 131.526643 
Q 306.911297 90.798748 315.725605 54.732215 
" style="fill: none; opacity: 0.75; stroke: #dc2626; stroke-width: 4.291952; stroke-linecap: round"/>
    <path d="M 312.833169 58.143052 
L 315.725605 54.732215 
L 316.718814 59.092666 
z
" style="fill: #dc2626; opacity: 0.75; stroke: #dc2626; stroke-width: 4.291952; stroke-linecap: round"/>
   </g>
   <g id="patch_16">
    <path d="M 296.957797 131.526643 
Q 306.911297 90.798748 315.612426 55.195322 
" style="fill: none; opacity: 0.75; stroke: #2563eb; stroke-width: 4.718358; stroke-linecap: round"/>
    <path d="M 312.71999 58.60616 
L 315.612426 55.195322 
L 316.605635 59.555774 
z
" style="fill: #2563eb; opacity: 0.75; stroke: #2563eb; stroke-width: 4.718358; stroke-linecap: round"/>
   </g>
   <g id="patch_17">
    <path d="M 294.920039 149.268963 
Q 294.959251 152.849987 294.963745 153.260381 
" style="fill: none; opacity: 0.75; stroke: #2563eb; stroke-width: 2.836068; stroke-linecap: round"/>
    <path d="M 296.919827 149.238722 
L 294.963745 153.260381 
L 292.920067 149.282519 
z
" style="fill: #2563eb; opacity: 0.75; stroke: #2563eb; stroke-width: 2.836068; stroke-linecap: round"/>
   </g>
   <g id="patch_18">
    <path d="M 257.870341 150.127761 
Q 252.561017 141.631797 249.480859 136.702937 
" style="fill: none; opacity: 0.75; stroke: #2563eb; stroke-width: 3.762278; stroke-linecap: round"/>
    <path d="M 249.904612 141.154952 
L 249.480859 136.702937 
L 253.296722 139.035144 
z
" style="fill: #2563eb; opacity: 0.75; stroke: #2563eb; stroke-width: 3.762278; stroke-linecap: round"/>
   </g>
   <g id="patch_19">
    <path d="M 270.549386 153.464283 
Q 278.73144 149.015874 282.278889 147.087202 
" style="fill: none; opacity: 0.75; stroke: #2563eb; stroke-width: 4.718358; stroke-linecap: round"/>
    <path d="M 277.809388 147.240698 
L 282.278889 147.087202 
L 279.719985 150.7549 
z
" style="fill: #2563eb; opacity: 0.75; stroke: #2563eb; stroke-width: 4.718358; stroke-linecap: round"/>
   </g>
   <g id="patch_20">
    <path d="M 263.014896 148.770593 
Q 263.576544 135.225799 263.842887 128.802635 
" style="fill: none; opacity: 0.75; stroke: #2563eb; stroke-width: 6.375254; stroke-linecap: round"/>
    <path d="M 261.678883 132.71634 
L 263.842887 128.802635 
L 265.675448 132.882062 
z
" style="fill: #2563eb; opacity: 0.75; stroke: #2563eb; stroke-width: 6.375254; stroke-linecap: round"/>
   </g>
   <g id="patch_21">
    <path d="M 270.086817 162.817898 
Q 287.852752 174.879798 303.876805 185.759076 
" style="fill: none; opacity: 0.75; stroke: #dc2626; stroke-width: 1.883136; stroke-linecap: round"/>
    <path d="M 301.690874 181.857575 
L 303.876805 185.759076 
L 299.444046 185.166921 
z
" style="fill: #dc2626; opacity: 0.75; stroke: #dc2626; stroke-width: 1.883136; stroke-linecap: round"/>
   </g>
   <g id="patch_22">
    <path d="M 269.973673 105.537708 
Q 291.757263 77.007856 308.666677 54.861686 
" style="fill: none; opacity: 0.75; stroke: #2563eb; stroke-width: 7.183815; stroke-linecap: round"/>
    <path d="M 304.64961 56.827183 
L 308.666677 54.861686 
L 307.828834 59.254637 
z
" style="fill: #2563eb; opacity: 0.75; stroke: #2563eb; stroke-width: 7.183815; stroke-linecap: round"/>
   </g>
   <g id="patch_23">
    <path d="M 269.973673 105.537708 
Q 291.757263 77.007856 313.077215 49.085227 
" style="fill: none; opacity: 0.75; stroke: #dc2626; stroke-width: 0.683333; stroke-linecap: round"/>
    <path d="M 309.060149 51.050724 
L 313.077215 49.085227 
L 312.239373 53.478178 
z
" style="fill: #dc2626; opacity: 0.75; stroke: #dc2626; stroke-width: 0.683333; stroke-linecap: round"/>
   </g>
   <g id="patch_24">
    <path d="M 256.731565 117.216725 
Q 253.498023 119.097355 250.924897 120.593887 
" style="fill: none; opacity: 0.75; stroke: #dc2626; stroke-width: 0.683333; stroke-linecap: round"/>
    <path d="M 255.388123 120.311735 
L 250.924897 120.593887 
L 253.377111 116.854015 
z
" style="fill: #dc2626; opacity: 0.75; stroke: #dc2626; stroke-width: 0.683333; stroke-linecap: round"/>
   </g>
   <g id="patch_25">
    <path d="M 296.836387 147.617539 
Q 307.000288 98.878168 315.972157 55.855001 
" style="fill: none; opacity: 0.75; stroke: #2563eb; stroke-width: 5.222715; stroke-linecap: round"/>
    <path d="M 313.197698 59.362476 
L 315.972157 55.855001 
L 317.113462 60.179053 
z
" style="fill: #2563eb; opacity: 0.75; stroke: #2563eb; stroke-width: 5.222715; stroke-linecap: round"/>
   </g>
   <g id="patch_26">
    <path d="M 296.836387 147.617539 
Q 307.000288 98.878168 316.734383 52.199868 
" style="fill: none; opacity: 0.75; stroke: #dc2626; stroke-width: 1.883136; stroke-linecap: round"/>
    <path d="M 313.959924 55.707343 
L 316.734383 52.199868 
L 317.875688 56.52392 
z
" style="fill: #dc2626; opacity: 0.75; stroke: #dc2626; stroke-width: 1.883136; stroke-linecap: round"/>
   </g>
   <g id="patch_27">
    <path d="M 294.899903 147.430112 
Q 294.860691 143.849087 294.85215 143.069005 
" style="fill: none; opacity: 0.75; stroke: #dc2626; stroke-width: 2.505389; stroke-linecap: round"/>
    <path d="M 292.896067 147.090664 
L 294.85215 143.069005 
L 296.895827 147.046867 
z
" style="fill: #dc2626; opacity: 0.75; stroke: #dc2626; stroke-width: 2.505389; stroke-linecap: round"/>
   </g>
   <g id="patch_28">
    <path d="M 241.230003 365.074658 
Q 257.415504 324.50058 272.042469 287.833468 
" style="fill: none; opacity: 0.75; stroke: #2563eb; stroke-width: 3.762278; stroke-linecap: round"/>
    <path d="M 268.702741 290.807728 
L 272.042469 287.833468 
L 272.418039 292.289806 
z
" style="fill: #2563eb; opacity: 0.75; stroke: #2563eb; stroke-width: 3.762278; stroke-linecap: round"/>
   </g>
   <g id="patch_29">
    <path d="M 295.141137 235.499235 
Q 294.996414 192.383938 294.862334 152.439444 
" style="fill: none; opacity: 0.75; stroke: #dc2626; stroke-width: 2.836068; stroke-linecap: round"/>
    <path d="M 292.875772 156.446135 
L 294.862334 152.439444 
L 296.87575 156.432708 
z
" style="fill: #dc2626; opacity: 0.75; stroke: #dc2626; stroke-width: 2.836068; stroke-linecap: round"/>
   </g>
   <g id="patch_30">
    <path d="M 292.011525 236.072666 
Q 278.907365 201.132443 267.28031 170.130694 
" style="fill: none; opacity: 0.75; stroke: #2563eb; stroke-width: 3.762278; stroke-linecap: round"/>
    <path d="M 266.812322 174.578276 
L 267.28031 170.130694 
L 270.557583 173.173634 
z
" style="fill: #2563eb; opacity: 0.75; stroke: #2563eb; stroke-width: 3.762278; stroke-linecap: round"/>
   </g>
   <g id="patch_31">
    <path d="M 298.075524 235.977502 
Q 304.119234 218.246383 307.753581 207.583883 
" style="fill: none; opacity: 0.75; stroke: #2563eb; stroke-width: 6.679546; stroke-linecap: round"/>
    <path d="M 304.570022 210.724735 
L 307.753581 207.583883 
L 308.356128 212.015241 
z
" style="fill: #2563eb; opacity: 0.75; stroke: #2563eb; stroke-width: 6.679546; stroke-linecap: round"/>
   </g>
   <g id="patch_32">
    <path d="M 227.171825 181.573823 
Q 249.418721 205.174541 268.780361 225.714423 
" style="fill: none; opacity: 0.75; stroke: #2563eb; stroke-width: 3.762278; stroke-linecap: round"/>
    <path d="M 267.491989 221.431889 
L 268.780361 225.714423 
L 264.581311 224.1756 
z
" style="fill: #2563eb; opacity: 0.75; stroke: #2563eb; stroke-width: 3.762278; stroke-linecap: round"/>
   </g>
   <g id="patch_33">
    <path d="M 224.5791 166.769834 
Q 231.739223 150.266288 237.856601 136.166189 
" style="fill: none; opacity: 0.75; stroke: #dc2626; stroke-width: 2.343309; stroke-linecap: round"/>
    <path d="M 234.429802 139.039696 
L 237.856601 136.166189 
L 238.099327 140.631733 
z
" style="fill: #dc2626; opacity: 0.75; stroke: #dc2626; stroke-width: 2.343309; stroke-linecap: round"/>
   </g>
   <g id="patch_34">
    <path d="M 305.621268 186.943451 
Q 287.855333 174.881551 275.447298 166.457311 
" style="fill: none; opacity: 0.75; stroke: #2563eb; stroke-width: 5.792386; stroke-linecap: round"/>
    <path d="M 277.633229 170.358812 
L 275.447298 166.457311 
L 279.880057 167.049466 
z
" style="fill: #2563eb; opacity: 0.75; stroke: #2563eb; stroke-width: 5.792386; stroke-linecap: round"/>
   </g>
   <g id="patch_35">
    <path d="M 308.988077 183.970238 
Q 304.03143 174.21284 300.028327 166.332541 
" style="fill: none; opacity: 0.75; stroke: #dc2626; stroke-width: 1.883136; stroke-linecap: round"/>
    <path d="M 300.056817 170.804586 
L 300.028327 166.332541 
L 303.623057 168.992977 
z
" style="fill: #dc2626; opacity: 0.75; stroke: #dc2626; stroke-width: 1.883136; stroke-linecap: round"/>
   </g>
   <g id="patch_36">
    <path d="M 308.988077 183.970238 
Q 304.03143 174.21284 300.97985 168.205659 
" style="fill: none; opacity: 0.75; stroke: #2563eb; stroke-width: 3.762278; stroke-linecap: round"/>
    <path d="M 301.008339 172.677705 
L 300.97985 168.205659 
L 304.57458 170.866095 
z
" style="fill: #2563eb; opacity: 0.75; stroke: #2563eb; stroke-width: 3.762278; stroke-linecap: round"/>
   </g>
   <g id="patch_37">
    <path d="M 310.161902 200.51832 
Q 304.118192 218.24944 299.431564 231.999134 
" style="fill: none; opacity: 0.75; stroke: #2563eb; stroke-width: 3.762278; stroke-linecap: round"/>
    <path d="M 302.615123 228.858282 
L 299.431564 231.999134 
L 298.829017 227.567776 
z
" style="fill: #2563eb; opacity: 0.75; stroke: #2563eb; stroke-width: 3.762278; stroke-linecap: round"/>
   </g>
   <g id="patch_38">
    <path d="M 277.138806 266.571413 
Q 277.389019 255.447872 277.498433 250.583737 
" style="fill: none; opacity: 0.75; stroke: #2563eb; stroke-width: 5.6; stroke-linecap: round"/>
    <path d="M 275.408985 254.537749 
L 277.498433 250.583737 
L 279.407974 254.627702 
z
" style="fill: #2563eb; opacity: 0.75; stroke: #2563eb; stroke-width: 5.6; stroke-linecap: round"/>
   </g>
   <g id="text_11">
    <!-- BS (0) -->
    <g transform="translate(327.002087 33.325455) scale(0.09 -0.09)">
     <defs>
      <path id="DejaVuSans-Bold-42" d="M 2456 2859 
Q 2741 2859 2887 2984 
Q 3034 3109 3034 3353 
Q 3034 3594 2887 3720 
Q 2741 3847 2456 3847 
L 1791 3847 
L 1791 2859 
L 2456 2859 
z
M 2497 819 
Q 2859 819 3042 972 
Q 3225 1125 3225 1434 
Q 3225 1738 3044 1889 
Q 2863 2041 2497 2041 
L 1791 2041 
L 1791 819 
L 2497 819 
z
M 3616 2497 
Q 4003 2384 4215 2081 
Q 4428 1778 4428 1338 
Q 4428 663 3972 331 
Q 3516 0 2584 0 
L 588 0 
L 588 4666 
L 2394 4666 
Q 3366 4666 3802 4372 
Q 4238 4078 4238 3431 
Q 4238 3091 4078 2852 
Q 3919 2613 3616 2497 
z
" transform="scale(0.015625)"/>
      <path id="DejaVuSans-Bold-53" d="M 3834 4519 
L 3834 3531 
Q 3450 3703 3084 3790 
Q 2719 3878 2394 3878 
Q 1963 3878 1756 3759 
Q 1550 3641 1550 3391 
Q 1550 3203 1689 3098 
Q 1828 2994 2194 2919 
L 2706 2816 
Q 3484 2659 3812 2340 
Q 4141 2022 4141 1434 
Q 4141 663 3683 286 
Q 3225 -91 2284 -91 
Q 1841 -91 1394 -6 
Q 947 78 500 244 
L 500 1259 
Q 947 1022 1364 901 
Q 1781 781 2169 781 
Q 2563 781 2772 912 
Q 2981 1044 2981 1288 
Q 2981 1506 2839 1625 
Q 2697 1744 2272 1838 
L 1806 1941 
Q 1106 2091 782 2419 
Q 459 2747 459 3303 
Q 459 4000 909 4375 
Q 1359 4750 2203 4750 
Q 2588 4750 2994 4692 
Q 3400 4634 3834 4519 
z
" transform="scale(0.015625)"/>
      <path id="DejaVuSans-Bold-20" transform="scale(0.015625)"/>
      <path id="DejaVuSans-Bold-28" d="M 2413 -844 
L 1484 -844 
Q 1006 -72 778 623 
Q 550 1319 550 2003 
Q 550 2688 779 3389 
Q 1009 4091 1484 4856 
L 2413 4856 
Q 2013 4116 1813 3408 
Q 1613 2700 1613 2009 
Q 1613 1319 1811 609 
Q 2009 -100 2413 -844 
z
" transform="scale(0.015625)"/>
      <path id="DejaVuSans-Bold-30" d="M 2944 2338 
Q 2944 3213 2780 3570 
Q 2616 3928 2228 3928 
Q 1841 3928 1675 3570 
Q 1509 3213 1509 2338 
Q 1509 1453 1675 1090 
Q 1841 728 2228 728 
Q 2613 728 2778 1090 
Q 2944 1453 2944 2338 
z
M 4147 2328 
Q 4147 1169 3647 539 
Q 3147 -91 2228 -91 
Q 1306 -91 806 539 
Q 306 1169 306 2328 
Q 306 3491 806 4120 
Q 1306 4750 2228 4750 
Q 3147 4750 3647 4120 
Q 4147 3491 4147 2328 
z
" transform="scale(0.015625)"/>
      <path id="DejaVuSans-Bold-29" d="M 513 -844 
Q 913 -100 1113 609 
Q 1313 1319 1313 2009 
Q 1313 2700 1113 3408 
Q 913 4116 513 4856 
L 1441 4856 
Q 1916 4091 2145 3389 
Q 2375 2688 2375 2003 
Q 2375 1319 2147 623 
Q 1919 -72 1441 -844 
L 513 -844 
z
" transform="scale(0.015625)"/>
     </defs>
     <use xlink:href="#DejaVuSans-Bold-42"/>
     <use xlink:href="#DejaVuSans-Bold-53" x="76.220703"/>
     <use xlink:href="#DejaVuSans-Bold-20" x="148.242188"/>
     <use xlink:href="#DejaVuSans-Bold-28" x="183.056641"/>
     <use xlink:href="#DejaVuSans-Bold-30" x="228.759766"/>
     <use xlink:href="#DejaVuSans-Bold-29" x="298.339844"/>
    </g>
   </g>
   <g id="text_12">
    <!-- UWSN non-uniform k-connectivity — routing solution (seed 6, τ=49052) -->
    <g transform="translate(89.523438 18.72) scale(0.1 -0.1)">
     <defs>
      <path id="DejaVuSans-55" d="M 556 4666 
L 1191 4666 
L 1191 1831 
Q 1191 1081 1462 751 
Q 1734 422 2344 422 
Q 2950 422 3222 751 
Q 3494 1081 3494 1831 
L 3494 4666 
L 4128 4666 
L 4128 1753 
Q 4128 841 3676 375 
Q 3225 -91 2344 -91 
Q 1459 -91 1007 375 
Q 556 841 556 1753 
L 556 4666 
z
" transform="scale(0.015625)"/>
      <path id="DejaVuSans-57" d="M 213 4666 
L 850 4666 
L 1831 722 
L 2809 4666 
L 3519 4666 
L 4500 722 
L 5478 4666 
L 6119 4666 
L 4947 0 
L 4153 0 
L 3169 4050 
L 2175 0 
L 1381 0 
L 213 4666 
z
" transform="scale(0.015625)"/>
      <path id="DejaVuSans-53" d="M 3425 4513 
L 3425 3897 
Q 3066 4069 2747 4153 
Q 2428 4238 2131 4238 
Q 1616 4238 1336 4038 
Q 1056 3838 1056 3469 
Q 1056 3159 1242 3001 
Q 1428 2844 1947 2747 
L 2328 2669 
Q 3034 2534 3370 2195 
Q 3706 1856 3706 1288 
Q 3706 609 3251 259 
Q 2797 -91 1919 -91 
Q 1588 -91 1214 -16 
Q 841 59 441 206 
L 441 856 
Q 825 641 1194 531 
Q 1563 422 1919 422 
Q 2459 422 2753 634 
Q 3047 847 3047 1241 
Q 3047 1584 2836 1778 
Q 2625 1972 2144 2069 
L 1759 2144 
Q 1053 2284 737 2584 
Q 422 2884 422 3419 
Q 422 4038 858 4394 
Q 1294 4750 2059 4750 
Q 2388 4750 2728 4690 
Q 3069 4631 3425 4513 
z
" transform="scale(0.015625)"/>
      <path id="DejaVuSans-4e" d="M 628 4666 
L 1478 4666 
L 3547 763 
L 3547 4666 
L 4159 4666 
L 4159 0 
L 3309 0 
L 1241 3903 
L 1241 0 
L 628 0 
L 628 4666 
z
" transform="scale(0.015625)"/>
      <path id="DejaVuSans-6e" d="M 3513 2113 
L 3513 0 
L 2938 0 
L 2938 2094 
Q 2938 2591 2744 2837 
Q 2550 3084 2163 3084 
Q 1697 3084 1428 2787 
Q 1159 2491 1159 1978 
L 1159 0 
L 581 0 
L 581 3500 
L 1159 3500 
L 1159 2956 
Q 1366 3272 1645 3428 
Q 1925 3584 2291 3584 
Q 2894 3584 3203 3211 
Q 3513 2838 3513 2113 
z
" transform="scale(0.015625)"/>
      <path id="DejaVuSans-6f" d="M 1959 3097 
Q 1497 3097 1228 2736 
Q 959 2375 959 1747 
Q 959 1119 1226 758 
Q 1494 397 1959 397 
Q 2419 397 2687 759 
Q 2956 1122 2956 1747 
Q 2956 2369 2687 2733 
Q 2419 3097 1959 3097 
z
M 1959 3584 
Q 2709 3584 3137 3096 
Q 3566 2609 3566 1747 
Q 3566 888 3137 398 
Q 2709 -91 1959 -91 
Q 1206 -91 779 398 
Q 353 888 353 1747 
Q 353 2609 779 3096 
Q 1206 3584 1959 3584 
z
" transform="scale(0.015625)"/>
      <path id="DejaVuSans-2d" d="M 313 2009 
L 1997 2009 
L 1997 1497 
L 313 1497 
L 313 2009 
z
" transform="scale(0.015625)"/>
      <path id="DejaVuSans-75" d="M 544 1381 
L 544 3500 
L 1119 3500 
L 1119 1403 
Q 1119 906 1312 657 
Q 1506 409 1894 409 
Q 2359 409 2629 706 
Q 2900 1003 2900 1516 
L 2900 3500 
L 3475 3500 
L 3475 0 
L 2900 0 
L 2900 538 
Q 2691 219 2414 64 
Q 2138 -91 1772 -91 
Q 1169 -91 856 284 
Q 544 659 544 1381 
z
M 1991 3584 
L 1991 3584 
z
" transform="scale(0.015625)"/>
      <path id="DejaVuSans-69" d="M 603 3500 
L 1178 3500 
L 1178 0 
L 603 0 
L 603 3500 
z
M 603 4863 
L 1178 4863 
L 1178 4134 
L 603 4134 
L 603 4863 
z
" transform="scale(0.015625)"/>
      <path id="DejaVuSans-66" d="M 2375 4863 
L 2375 4384 
L 1825 4384 
Q 1516 4384 1395 4259 
Q 1275 4134 1275 3809 
L 1275 3500 
L 2222 3500 
L 2222 3053 
L 1275 3053 
L 1275 0 
L 697 0 
L 697 3053 
L 147 3053 
L 147 3500 
L 697 3500 
L 697 3744 
Q 697 4328 969 4595 
Q 1241 4863 1831 4863 
L 2375 4863 
z
" transform="scale(0.015625)"/>
      <path id="DejaVuSans-72" d="M 2631 2963 
Q 2534 3019 2420 3045 
Q 2306 3072 2169 3072 
Q 1681 3072 1420 2755 
Q 1159 2438 1159 1844 
L 1159 0 
L 581 0 
L 581 3500 
L 1159 3500 
L 1159 2956 
Q 1341 3275 1631 3429 
Q 1922 3584 2338 3584 
Q 2397 3584 2469 3576 
Q 2541 3569 2628 3553 
L 2631 2963 
z
" transform="scale(0.015625)"/>
      <path id="DejaVuSans-63" d="M 3122 3366 
L 3122 2828 
Q 2878 2963 2633 3030 
Q 2388 3097 2138 3097 
Q 1578 3097 1268 2742 
Q 959 2388 959 1747 
Q 959 1106 1268 751 
Q 1578 397 2138 397 
Q 2388 397 2633 464 
Q 2878 531 3122 666 
L 3122 134 
Q 2881 22 2623 -34 
Q 2366 -91 2075 -91 
Q 1284 -91 818 406 
Q 353 903 353 1747 
Q 353 2603 823 3093 
Q 1294 3584 2113 3584 
Q 2378 3584 2631 3529 
Q 2884 3475 3122 3366 
z
" transform="scale(0.015625)"/>
      <path id="DejaVuSans-65" d="M 3597 1894 
L 3597 1613 
L 953 1613 
Q 991 1019 1311 708 
Q 1631 397 2203 397 
Q 2534 397 2845 478 
Q 3156 559 3463 722 
L 3463 178 
Q 3153 47 2828 -22 
Q 2503 -91 2169 -91 
Q 1331 -91 842 396 
Q 353 884 353 1716 
Q 353 2575 817 3079 
Q 1281 3584 2069 3584 
Q 2775 3584 3186 3129 
Q 3597 2675 3597 1894 
z
M 3022 2063 
Q 3016 2534 2758 2815 
Q 2500 3097 2075 3097 
Q 1594 3097 1305 2825 
Q 1016 2553 972 2059 
L 3022 2063 
z
" transform="scale(0.015625)"/>
      <path id="DejaVuSans-74" d="M 1172 4494 
L 1172 3500 
L 2356 3500 
L 2356 3053 
L 1172 3053 
L 1172 1153 
Q 1172 725 1289 603 
Q 1406 481 1766 481 
L 2356 481 
L 2356 0 
L 1766 0 
Q 1100 0 847 248 
Q 594 497 594 1153 
L 594 3053 
L 172 3053 
L 172 3500 
L 594 3500 
L 594 4494 
L 1172 4494 
z
" transform="scale(0.015625)"/>
      <path id="DejaVuSans-76" d="M 191 3500 
L 800 3500 
L 1894 563 
L 2988 3500 
L 3597 3500 
L 2284 0 
L 1503 0 
L 191 3500 
z
" transform="scale(0.015625)"/>
      <path id="DejaVuSans-2014" d="M 313 1978 
L 6088 1978 
L 6088 1528 
L 313 1528 
L 313 1978 
z
" transform="scale(0.015625)"/>
      <path id="DejaVuSans-67" d="M 2906 1791 
Q 2906 2416 2648 2759 
Q 2391 3103 1925 3103 
Q 1463 3103 1205 2759 
Q 947 2416 947 1791 
Q 947 1169 1205 825 
Q 1463 481 1925 481 
Q 2391 481 2648 825 
Q 2906 1169 2906 1791 
z
M 3481 434 
Q 3481 -459 3084 -895 
Q 2688 -1331 1869 -1331 
Q 1566 -1331 1297 -1286 
Q 1028 -1241 775 -1147 
L 775 -588 
Q 1028 -725 1275 -790 
Q 1522 -856 1778 -856 
Q 2344 -856 2625 -561 
Q 2906 -266 2906 331 
L 2906 616 
Q 2728 306 2450 153 
Q 2172 0 1784 0 
Q 1141 0 747 490 
Q 353 981 353 1791 
Q 353 2603 747 3093 
Q 1141 3584 1784 3584 
Q 2172 3584 2450 3431 
Q 2728 3278 2906 2969 
L 2906 3500 
L 3481 3500 
L 3481 434 
z
" transform="scale(0.015625)"/>
      <path id="DejaVuSans-73" d="M 2834 3397 
L 2834 2853 
Q 2591 2978 2328 3040 
Q 2066 3103 1784 3103 
Q 1356 3103 1142 2972 
Q 928 2841 928 2578 
Q 928 2378 1081 2264 
Q 1234 2150 1697 2047 
L 1894 2003 
Q 2506 1872 2764 1633 
Q 3022 1394 3022 966 
Q 3022 478 2636 193 
Q 2250 -91 1575 -91 
Q 1294 -91 989 -36 
Q 684 19 347 128 
L 347 722 
Q 666 556 975 473 
Q 1284 391 1588 391 
Q 1994 391 2212 530 
Q 2431 669 2431 922 
Q 2431 1156 2273 1281 
Q 2116 1406 1581 1522 
L 1381 1569 
Q 847 1681 609 1914 
Q 372 2147 372 2553 
Q 372 3047 722 3315 
Q 1072 3584 1716 3584 
Q 2034 3584 2315 3537 
Q 2597 3491 2834 3397 
z
" transform="scale(0.015625)"/>
      <path id="DejaVuSans-6c" d="M 603 4863 
L 1178 4863 
L 1178 0 
L 603 0 
L 603 4863 
z
" transform="scale(0.015625)"/>
      <path id="DejaVuSans-64" d="M 2906 2969 
L 2906 4863 
L 3481 4863 
L 3481 0 
L 2906 0 
L 2906 525 
Q 2725 213 2448 61 
Q 2172 -91 1784 -91 
Q 1150 -91 751 415 
Q 353 922 353 1747 
Q 353 2572 751 3078 
Q 1150 3584 1784 3584 
Q 2172 3584 2448 3432 
Q 2725 3281 2906 2969 
z
M 947 1747 
Q 947 1113 1208 752 
Q 1469 391 1925 391 
Q 2381 391 2643 752 
Q 2906 1113 2906 1747 
Q 2906 2381 2643 2742 
Q 2381 3103 1925 3103 
Q 1469 3103 1208 2742 
Q 947 2381 947 1747 
z
" transform="scale(0.015625)"/>
      <path id="DejaVuSans-36" d="M 2113 2584 
Q 1688 2584 1439 2293 
Q 1191 2003 1191 1497 
Q 1191 994 1439 701 
Q 1688 409 2113 409 
Q 2538 409 2786 701 
Q 3034 994 3034 1497 
Q 3034 2003 2786 2293 
Q 2538 2584 2113 2584 
z
M 3366 4563 
L 3366 3988 
Q 3128 4100 2886 4159 
Q 2644 4219 2406 4219 
Q 1781 4219 1451 3797 
Q 1122 3375 1075 2522 
Q 1259 2794 1537 2939 
Q 1816 3084 2150 3084 
Q 2853 3084 3261 2657 
Q 3669 2231 3669 1497 
Q 3669 778 3244 343 
Q 2819 -91 2113 -91 
Q 1303 -91 875 529 
Q 447 1150 447 2328 
Q 447 3434 972 4092 
Q 1497 4750 2381 4750 
Q 2619 4750 2861 4703 
Q 3103 4656 3366 4563 
z
" transform="scale(0.015625)"/>
      <path id="DejaVuSans-2c" d="M 750 794 
L 1409 794 
L 1409 256 
L 897 -744 
L 494 -744 
L 750 256 
L 750 794 
z
" transform="scale(0.015625)"/>
      <path id="DejaVuSans-3c4" d="M 2319 638 
Q 2431 488 2769 488 
L 3047 488 
L 3047 0 
L 2700 0 
Q 2138 0 1881 300 
Q 1625 606 1625 1269 
L 1625 2925 
L 313 2925 
L 313 3500 
L 3541 3500 
L 3541 2925 
L 2213 2925 
L 2213 1234 
Q 2213 781 2319 638 
z
" transform="scale(0.015625)"/>
      <path id="DejaVuSans-3d" d="M 678 2906 
L 4684 2906 
L 4684 2381 
L 678 2381 
L 678 2906 
z
M 678 1631 
L 4684 1631 
L 4684 1100 
L 678 1100 
L 678 1631 
z
" transform="scale(0.015625)"/>
      <path id="DejaVuSans-34" d="M 2419 4116 
L 825 1625 
L 2419 1625 
L 2419 4116 
z
M 2253 4666 
L 3047 4666 
L 3047 1625 
L 3713 1625 
L 3713 1100 
L 3047 1100 
L 3047 0 
L 2419 0 
L 2419 1100 
L 313 1100 
L 313 1709 
L 2253 4666 
z
" transform="scale(0.015625)"/>
      <path id="DejaVuSans-39" d="M 703 97 
L 703 672 
Q 941 559 1184 500 
Q 1428 441 1663 441 
Q 2288 441 2617 861 
Q 2947 1281 2994 2138 
Q 2813 1869 2534 1725 
Q 2256 1581 1919 1581 
Q 1219 1581 811 2004 
Q 403 2428 403 3163 
Q 403 3881 828 4315 
Q 1253 4750 1959 4750 
Q 2769 4750 3195 4129 
Q 3622 3509 3622 2328 
Q 3622 1225 3098 567 
Q 2575 -91 1691 -91 
Q 1453 -91 1209 -44 
Q 966 3 703 97 
z
M 1959 2075 
Q 2384 2075 2632 2365 
Q 2881 2656 2881 3163 
Q 2881 3666 2632 3958 
Q 2384 4250 1959 4250 
Q 1534 4250 1286 3958 
Q 1038 3666 1038 3163 
Q 1038 2656 1286 2365 
Q 1534 2075 1959 2075 
z
" transform="scale(0.015625)"/>
      <path id="DejaVuSans-32" d="M 1228 531 
L 3431 531 
L 3431 0 
L 469 0 
L 469 531 
Q 828 903 1448 1529 
Q 2069 2156 2228 2338 
Q 2531 2678 2651 2914 
Q 2772 3150 2772 3378 
Q 2772 3750 2511 3984 
Q 2250 4219 1831 4219 
Q 1534 4219 1204 4116 
Q 875 4013 500 3803 
L 500 4441 
Q 881 4594 1212 4672 
Q 1544 4750 1819 4750 
Q 2544 4750 2975 4387 
Q 3406 4025 3406 3419 
Q 3406 3131 3298 2873 
Q 3191 2616 2906 2266 
Q 2828 2175 2409 1742 
Q 1991 1309 1228 531 
z
" transform="scale(0.015625)"/>
     </defs>
     <use xlink:href="#DejaVuSans-55"/>
     <use xlink:href="#DejaVuSans-57" x="73.193359"/>
     <use xlink:href="#DejaVuSans-53" x="172.070312"/>
     <use xlink:href="#DejaVuSans-4e" x="235.546875"/>
     <use xlink:href="#DejaVuSans-20" x="310.351562"/>
     <use xlink:href="#DejaVuSans-6e" x="342.138672"/>
     <use xlink:href="#DejaVuSans-6f" x="405.517578"/>
     <use xlink:href="#DejaVuSans-6e" x="466.699219"/>
     <use xlink:href="#DejaVuSans-2d" x="530.078125"/>
     <use xlink:href="#DejaVuSans-75" x="566.162109"/>
     <use xlink:href="#DejaVuSans-6e" x="629.541016"/>
     <use xlink:href="#DejaVuSans-69" x="692.919922"/>
     <use xlink:href="#DejaVuSans-66" x="720.703125"/>
     <use xlink:href="#DejaVuSans-6f" x="755.908203"/>
     <use xlink:href="#DejaVuSans-72" x="817.089844"/>
     <use xlink:href="#DejaVuSans-6d" x="856.453125"/>
     <use xlink:href="#DejaVuSans-20" x="953.865234"/>
     <use xlink:href="#DejaVuSans-6b" x="985.652344"/>
     <use xlink:href="#DejaVuSans-2d" x="1043.5625"/>
     <use xlink:href="#DejaVuSans-63" x="1079.646484"/>
     <use xlink:href="#DejaVuSans-6f" x="1134.626953"/>
     <use xlink:href="#DejaVuSans-6e" x="1195.808594"/>
     <use xlink:href="#DejaVuSans-6e" x="1259.1875"/>
     <use xlink:href="#DejaVuSans-65" x="1322.566406"/>
     <use xlink:href="#DejaVuSans-63" x="1384.089844"/>
     <use xlink:href="#DejaVuSans-74" x="1439.070312"/>
     <use xlink:href="#DejaVuSans-69" x="1478.279297"/>
     <use xlink:href="#DejaVuSans-76" x="1506.0625"/>
     <use xlink:href="#DejaVuSans-69" x="1565.242188"/>
     <use xlink:href="#DejaVuSans-74" x="1593.025391"/>
     <use xlink:href="#DejaVuSans-79" x="1632.234375"/>
     <use xlink:href="#DejaVuSans-20" x="1691.414062"/>
     <use xlink:href="#DejaVuSans-2014" x="1723.201172"/>
     <use xlink:href="#DejaVuSans-20" x="1823.201172"/>
     <use xlink:href="#DejaVuSans-72" x="1854.988281"/>
     <use xlink:href="#DejaVuSans-6f" x="1893.851562"/>
     <use xlink:href="#DejaVuSans-75" x="1955.033203"/>
     <use xlink:href="#DejaVuSans-74" x="2018.412109"/>
     <use xlink:href="#DejaVuSans-69" x="2057.621094"/>
     <use xlink:href="#DejaVuSans-6e" x="2085.404297"/>
     <use xlink:href="#DejaVuSans-67" x="2148.783203"/>
     <use xlink:href="#DejaVuSans-20" x="2212.259766"/>
     <use xlink:href="#DejaVuSans-73" x="2244.046875"/>
     <use xlink:href="#DejaVuSans-6f" x="2296.146484"/>
     <use xlink:href="#DejaVuSans-6c" x="2357.328125"/>
     <use xlink:href="#DejaVuSans-75" x="2385.111328"/>
     <use xlink:href="#DejaVuSans-74" x="2448.490234"/>
     <use xlink:href="#DejaVuSans-69" x="2487.699219"/>
     <use xlink:href="#DejaVuSans-6f" x="2515.482422"/>
     <use xlink:href="#DejaVuSans-6e" x="2576.664062"/>
     <use xlink:href="#DejaVuSans-20" x="2640.042969"/>
     <use xlink:href="#DejaVuSans-28" x="2671.830078"/>
     <use xlink:href="#DejaVuSans-73" x="2710.84375"/>
     <use xlink:href="#DejaVuSans-65" x="2762.943359"/>
     <use xlink:href="#DejaVuSans-65" x="2824.466797"/>
     <use xlink:href="#DejaVuSans-64" x="2885.990234"/>
     <use xlink:href="#DejaVuSans-20" x="2949.466797"/>
     <use xlink:href="#DejaVuSans-36" x="2981.253906"/>
     <use xlink:href="#DejaVuSans-2c" x="3044.876953"/>
     <use xlink:href="#DejaVuSans-20" x="3076.664062"/>
     <use xlink:href="#DejaVuSans-3c4" x="3108.451172"/>
     <use xlink:href="#DejaVuSans-3d" x="3168.65625"/>
     <use xlink:href="#DejaVuSans-34" x="3252.445312"/>
     <use xlink:href="#DejaVuSans-39" x="3316.068359"/>
     <use xlink:href="#DejaVuSans-30" x="3379.691406"/>
     <use xlink:href="#DejaVuSans-35" x="3443.314453"/>
     <use xlink:href="#DejaVuSans-32" x="3506.9375"/>
     <use xlink:href="#DejaVuSans-29" x="3570.560547"/>
    </g>
   </g>
   <g id="PathCollection_1">
    <defs>
     <path id="ma943d5e12b" d="M 0 -10.246951 
L -2.300584 -3.166482 
L -9.745429 -3.166482 
L -3.722423 1.209488 
L -6.023007 8.289957 
L -0 3.913987 
L 6.023007 8.289957 
L 3.722423 1.209488 
L 9.745429 -3.166482 
L 2.300584 -3.166482 
z
" style="stroke: #111111"/>
    </defs>
    <g clip-path="url(#p3d4bdd3087)">
     <use xlink:href="#ma943d5e12b" x="319.002087" y="41.325455" style="fill: #111111; stroke: #111111"/>
    </g>
   </g>
   <g id="PathCollection_2">
    <defs>
     <path id="mc02928a3a8" d="M 0 5.700877 
C 1.51189 5.700877 2.962061 5.100197 4.031129 4.031129 
C 5.100197 2.962061 5.700877 1.51189 5.700877 0 
C 5.700877 -1.51189 5.100197 -2.962061 4.031129 -4.031129 
C 2.962061 -5.100197 1.51189 -5.700877 0 -5.700877 
C -1.51189 -5.700877 -2.962061 -5.100197 -4.031129 -4.031129 
C -5.100197 -2.962061 -5.700877 -1.51189 -5.700877 0 
C -5.700877 1.51189 -5.100197 2.962061 -4.031129 4.031129 
C -2.962061 5.100197 -1.51189 5.700877 0 5.700877 
z
" style="stroke: #333333; stroke-width: 0.6"/>
    </defs>
    <g clip-path="url(#p3d4bdd3087)">
     <use xlink:href="#mc02928a3a8" x="256.139145" y="311.731863" style="fill: #b91c1c; stroke: #333333; stroke-width: 0.6"/>
    </g>
   </g>
   <g id="PathCollection_3">
    <g clip-path="url(#p3d4bdd3087)">
     <use xlink:href="#mc02928a3a8" x="277.841616" y="235.327095" style="fill: #b91c1c; stroke: #333333; stroke-width: 0.6"/>
    </g>
   </g>
   <g id="PathCollection_4">
    <g clip-path="url(#p3d4bdd3087)">
     <use xlink:href="#mc02928a3a8" x="242.482412" y="125.504043" style="fill: #b91c1c; stroke: #333333; stroke-width: 0.6"/>
    </g>
   </g>
   <g id="PathCollection_5">
    <g clip-path="url(#p3d4bdd3087)">
     <use xlink:href="#mc02928a3a8" x="294.821479" y="140.268063" style="fill: #b91c1c; stroke: #333333; stroke-width: 0.6"/>
    </g>
   </g>
   <g id="PathCollection_6">
    <g clip-path="url(#p3d4bdd3087)">
     <use xlink:href="#mc02928a3a8" x="262.642002" y="157.763358" style="fill: #b91c1c; stroke: #333333; stroke-width: 0.6"/>
    </g>
   </g>
   <g id="PathCollection_7">
    <g clip-path="url(#p3d4bdd3087)">
     <use xlink:href="#mc02928a3a8" x="264.51092" y="112.692246" style="fill: #b91c1c; stroke: #333333; stroke-width: 0.6"/>
    </g>
   </g>
   <g id="PathCollection_8">
    <defs>
     <path id="m2cf0434cea" d="M 0 5.700877 
C 1.51189 5.700877 2.962061 5.100197 4.031129 4.031129 
C 5.100197 2.962061 5.700877 1.51189 5.700877 0 
C 5.700877 -1.51189 5.100197 -2.962061 4.031129 -4.031129 
C 2.962061 -5.100197 1.51189 -5.700877 0 -5.700877 
C -1.51189 -5.700877 -2.962061 -5.100197 -4.031129 -4.031129 
C -5.100197 -2.962061 -5.700877 -1.51189 -5.700877 0 
C -5.700877 1.51189 -5.100197 2.962061 -4.031129 4.031129 
C -2.962061 5.100197 -1.51189 5.700877 0 5.700877 
z
" style="stroke: #333333; stroke-width: 0.6"/>
    </defs>
    <g clip-path="url(#p3d4bdd3087)">
     <use xlink:href="#m2cf0434cea" x="294.998463" y="156.431011" style="fill: #f59e0b; stroke: #333333; stroke-width: 0.6"/>
    </g>
   </g>
   <g id="PathCollection_9">
    <g clip-path="url(#p3d4bdd3087)">
     <use xlink:href="#m2cf0434cea" x="237.89514" y="373.434545" style="fill: #f59e0b; stroke: #333333; stroke-width: 0.6"/>
    </g>
   </g>
   <g id="PathCollection_10">
    <g clip-path="url(#p3d4bdd3087)">
     <use xlink:href="#m2cf0434cea" x="295.171342" y="244.497832" style="fill: #f59e0b; stroke: #333333; stroke-width: 0.6"/>
    </g>
   </g>
   <g id="PathCollection_11">
    <g clip-path="url(#p3d4bdd3087)">
     <use xlink:href="#m2cf0434cea" x="220.997913" y="175.024201" style="fill: #f59e0b; stroke: #333333; stroke-width: 0.6"/>
    </g>
   </g>
   <g id="PathCollection_12">
    <g clip-path="url(#p3d4bdd3087)">
     <use xlink:href="#m2cf0434cea" x="313.066084" y="191.99799" style="fill: #f59e0b; stroke: #333333; stroke-width: 0.6"/>
    </g>
   </g>
   <g id="PathCollection_13">
    <g clip-path="url(#p3d4bdd3087)">
     <use xlink:href="#m2cf0434cea" x="276.936504" y="275.565022" style="fill: #f59e0b; stroke: #333333; stroke-width: 0.6"/>
    </g>
   </g>
   <g id="legend_1">
    <g id="patch_39">
     <path d="M 331.658387 237.93625 
L 444.915887 237.93625 
Q 446.515887 237.93625 446.515887 236.33625 
L 446.515887 178.42375 
Q 446.515887 176.82375 444.915887 176.82375 
L 331.658387 176.82375 
Q 330.058387 176.82375 330.058387 178.42375 
L 330.058387 236.33625 
Q 330.058387 237.93625 331.658387 237.93625 
z
" style="fill: #ffffff; opacity: 0.95; stroke: #cccccc; stroke-linejoin: miter"/>
    </g>
    <g id="line2d_17">
     <path d="M 333.258387 183.3025 
L 341.258387 183.3025 
L 349.258387 183.3025 
" style="fill: none; stroke: #ffffff; stroke-width: 1.5; stroke-linecap: square"/>
     <defs>
      <path id="m261369d73d" d="M 0 -8 
L -1.796112 -2.472136 
L -7.608452 -2.472136 
L -2.90617 0.944272 
L -4.702282 6.472136 
L -0 3.055728 
L 4.702282 6.472136 
L 2.90617 0.944272 
L 7.608452 -2.472136 
L 1.796112 -2.472136 
z
" style="stroke: #ffffff; stroke-linejoin: bevel"/>
     </defs>
     <g>
      <use xlink:href="#m261369d73d" x="341.258387" y="183.3025" style="fill: #111111; stroke: #ffffff; stroke-linejoin: bevel"/>
     </g>
    </g>
    <g id="text_13">
     <!-- base station (0) -->
     <g transform="translate(355.658387 186.1025) scale(0.08 -0.08)">
      <defs>
       <path id="DejaVuSans-62" d="M 3116 1747 
Q 3116 2381 2855 2742 
Q 2594 3103 2138 3103 
Q 1681 3103 1420 2742 
Q 1159 2381 1159 1747 
Q 1159 1113 1420 752 
Q 1681 391 2138 391 
Q 2594 391 2855 752 
Q 3116 1113 3116 1747 
z
M 1159 2969 
Q 1341 3281 1617 3432 
Q 1894 3584 2278 3584 
Q 2916 3584 3314 3078 
Q 3713 2572 3713 1747 
Q 3713 922 3314 415 
Q 2916 -91 2278 -91 
Q 1894 -91 1617 61 
Q 1341 213 1159 525 
L 1159 0 
L 581 0 
L 581 4863 
L 1159 4863 
L 1159 2969 
z
" transform="scale(0.015625)"/>
       <path id="DejaVuSans-61" d="M 2194 1759 
Q 1497 1759 1228 1600 
Q 959 1441 959 1056 
Q 959 750 1161 570 
Q 1363 391 1709 391 
Q 2188 391 2477 730 
Q 2766 1069 2766 1631 
L 2766 1759 
L 2194 1759 
z
M 3341 1997 
L 3341 0 
L 2766 0 
L 2766 531 
Q 2569 213 2275 61 
Q 1981 -91 1556 -91 
Q 1019 -91 701 211 
Q 384 513 384 1019 
Q 384 1609 779 1909 
Q 1175 2209 1959 2209 
L 2766 2209 
L 2766 2266 
Q 2766 2663 2505 2880 
Q 2244 3097 1772 3097 
Q 1472 3097 1187 3025 
Q 903 2953 641 2809 
L 641 3341 
Q 956 3463 1253 3523 
Q 1550 3584 1831 3584 
Q 2591 3584 2966 3190 
Q 3341 2797 3341 1997 
z
" transform="scale(0.015625)"/>
      </defs>
      <use xlink:href="#DejaVuSans-62"/>
      <use xlink:href="#DejaVuSans-61" x="63.476562"/>
      <use xlink:href="#DejaVuSans-73" x="124.755859"/>
      <use xlink:href="#DejaVuSans-65" x="176.855469"/>
      <use xlink:href="#DejaVuSans-20" x="238.378906"/>
      <use xlink:href="#DejaVuSans-73" x="270.166016"/>
      <use xlink:href="#DejaVuSans-74" x="322.265625"/>
      <use xlink:href="#DejaVuSans-61" x="361.474609"/>
      <use xlink:href="#DejaVuSans-74" x="422.753906"/>
      <use xlink:href="#DejaVuSans-69" x="461.962891"/>
      <use xlink:href="#DejaVuSans-6f" x="489.746094"/>
      <use xlink:href="#DejaVuSans-6e" x="550.927734"/>
      <use xlink:href="#DejaVuSans-20" x="614.306641"/>
      <use xlink:href="#DejaVuSans-28" x="646.09375"/>
      <use xlink:href="#DejaVuSans-30" x="685.107422"/>
      <use xlink:href="#DejaVuSans-29" x="748.730469"/>
     </g>
    </g>
    <g id="line2d_18">
     <path d="M 333.258387 195.045 
L 341.258387 195.045 
L 349.258387 195.045 
" style="fill: none; stroke: #ffffff; stroke-width: 1.5; stroke-linecap: square"/>
     <defs>
      <path id="mbfc6ac5ed8" d="M 0 5 
C 1.326016 5 2.597899 4.473168 3.535534 3.535534 
C 4.473168 2.597899 5 1.326016 5 0 
C 5 -1.326016 4.473168 -2.597899 3.535534 -3.535534 
C 2.597899 -4.473168 1.326016 -5 0 -5 
C -1.326016 -5 -2.597899 -4.473168 -3.535534 -3.535534 
C -4.473168 -2.597899 -5 -1.326016 -5 0 
C -5 1.326016 -4.473168 2.597899 -3.535534 3.535534 
C -2.597899 4.473168 -1.326016 5 0 5 
z
" style="stroke: #ffffff"/>
     </defs>
     <g>
      <use xlink:href="#mbfc6ac5ed8" x="341.258387" y="195.045" style="fill: #b91c1c; stroke: #ffffff"/>
     </g>
    </g>
    <g id="text_14">
     <!-- critical source (k=2) -->
     <g transform="translate(355.658387 197.845) scale(0.08 -0.08)">
      <use xlink:href="#DejaVuSans-63"/>
      <use xlink:href="#DejaVuSans-72" x="54.980469"/>
      <use xlink:href="#DejaVuSans-69" x="96.09375"/>
      <use xlink:href="#DejaVuSans-74" x="123.876953"/>
      <use xlink:href="#DejaVuSans-69" x="163.085938"/>
      <use xlink:href="#DejaVuSans-63" x="190.869141"/>
      <use xlink:href="#DejaVuSans-61" x="245.849609"/>
      <use xlink:href="#DejaVuSans-6c" x="307.128906"/>
      <use xlink:href="#DejaVuSans-20" x="334.912109"/>
      <use xlink:href="#DejaVuSans-73" x="366.699219"/>
      <use xlink:href="#DejaVuSans-6f" x="418.798828"/>
      <use xlink:href="#DejaVuSans-75" x="479.980469"/>
      <use xlink:href="#DejaVuSans-72" x="543.359375"/>
      <use xlink:href="#DejaVuSans-63" x="582.222656"/>
      <use xlink:href="#DejaVuSans-65" x="637.203125"/>
      <use xlink:href="#DejaVuSans-20" x="698.726562"/>
      <use xlink:href="#DejaVuSans-28" x="730.513672"/>
      <use xlink:href="#DejaVuSans-6b" x="769.527344"/>
      <use xlink:href="#DejaVuSans-3d" x="827.4375"/>
      <use xlink:href="#DejaVuSans-32" x="911.226562"/>
      <use xlink:href="#DejaVuSans-29" x="974.849609"/>
     </g>
    </g>
    <g id="line2d_19">
     <path d="M 333.258387 206.7875 
L 341.258387 206.7875 
L 349.258387 206.7875 
" style="fill: none; stroke: #ffffff; stroke-width: 1.5; stroke-linecap: square"/>
     <defs>
      <path id="m5fb9f8a049" d="M 0 5 
C 1.326016 5 2.597899 4.473168 3.535534 3.535534 
C 4.473168 2.597899 5 1.326016 5 0 
C 5 -1.326016 4.473168 -2.597899 3.535534 -3.535534 
C 2.597899 -4.473168 1.326016 -5 0 -5 
C -1.326016 -5 -2.597899 -4.473168 -3.535534 -3.535534 
C -4.473168 -2.597899 -5 -1.326016 -5 0 
C -5 1.326016 -4.473168 2.597899 -3.535534 3.535534 
C -2.597899 4.473168 -1.326016 5 0 5 
z
" style="stroke: #ffffff"/>
     </defs>
     <g>
      <use xlink:href="#m5fb9f8a049" x="341.258387" y="206.7875" style="fill: #f59e0b; stroke: #ffffff"/>
     </g>
    </g>
    <g id="text_15">
     <!-- ordinary source (k=1) -->
     <g transform="translate(355.658387 209.5875) scale(0.08 -0.08)">
      <use xlink:href="#DejaVuSans-6f"/>
      <use xlink:href="#DejaVuSans-72" x="61.181641"/>
      <use xlink:href="#DejaVuSans-64" x="100.544922"/>
      <use xlink:href="#DejaVuSans-69" x="164.021484"/>
      <use xlink:href="#DejaVuSans-6e" x="191.804688"/>
      <use xlink:href="#DejaVuSans-61" x="255.183594"/>
      <use xlink:href="#DejaVuSans-72" x="316.462891"/>
      <use xlink:href="#DejaVuSans-79" x="357.576172"/>
      <use xlink:href="#DejaVuSans-20" x="416.755859"/>
      <use xlink:href="#DejaVuSans-73" x="448.542969"/>
      <use xlink:href="#DejaVuSans-6f" x="500.642578"/>
      <use xlink:href="#DejaVuSans-75" x="561.824219"/>
      <use xlink:href="#DejaVuSans-72" x="625.203125"/>
      <use xlink:href="#DejaVuSans-63" x="664.066406"/>
      <use xlink:href="#DejaVuSans-65" x="719.046875"/>
      <use xlink:href="#DejaVuSans-20" x="780.570312"/>
      <use xlink:href="#DejaVuSans-28" x="812.357422"/>
      <use xlink:href="#DejaVuSans-6b" x="851.371094"/>
      <use xlink:href="#DejaVuSans-3d" x="909.28125"/>
      <use xlink:href="#DejaVuSans-31" x="993.070312"/>
      <use xlink:href="#DejaVuSans-29" x="1056.693359"/>
     </g>
    </g>
    <g id="line2d_20">
     <path d="M 333.258387 218.53 
L 341.258387 218.53 
L 349.258387 218.53 
" style="fill: none; stroke: #2563eb; stroke-width: 2; stroke-linecap: square"/>
    </g>
    <g id="text_16">
     <!-- path l=1 -->
     <g transform="translate(355.658387 221.33) scale(0.08 -0.08)">
      <defs>
       <path id="DejaVuSans-70" d="M 1159 525 
L 1159 -1331 
L 581 -1331 
L 581 3500 
L 1159 3500 
L 1159 2969 
Q 1341 3281 1617 3432 
Q 1894 3584 2278 3584 
Q 2916 3584 3314 3078 
Q 3713 2572 3713 1747 
Q 3713 922 3314 415 
Q 2916 -91 2278 -91 
Q 1894 -91 1617 61 
Q 1341 213 1159 525 
z
M 3116 1747 
Q 3116 2381 2855 2742 
Q 2594 3103 2138 3103 
Q 1681 3103 1420 2742 
Q 1159 2381 1159 1747 
Q 1159 1113 1420 752 
Q 1681 391 2138 391 
Q 2594 391 2855 752 
Q 3116 1113 3116 1747 
z
" transform="scale(0.015625)"/>
       <path id="DejaVuSans-68" d="M 3513 2113 
L 3513 0 
L 2938 0 
L 2938 2094 
Q 2938 2591 2744 2837 
Q 2550 3084 2163 3084 
Q 1697 3084 1428 2787 
Q 1159 2491 1159 1978 
L 1159 0 
L 581 0 
L 581 4863 
L 1159 4863 
L 1159 2956 
Q 1366 3272 1645 3428 
Q 1925 3584 2291 3584 
Q 2894 3584 3203 3211 
Q 3513 2838 3513 2113 
z
" transform="scale(0.015625)"/>
      </defs>
      <use xlink:href="#DejaVuSans-70"/>
      <use xlink:href="#DejaVuSans-61" x="63.476562"/>
      <use xlink:href="#DejaVuSans-74" x="124.755859"/>
      <use xlink:href="#DejaVuSans-68" x="163.964844"/>
      <use xlink:href="#DejaVuSans-20" x="227.34375"/>
      <use xlink:href="#DejaVuSans-6c" x="259.130859"/>
      <use xlink:href="#DejaVuSans-3d" x="286.914062"/>
      <use xlink:href="#DejaVuSans-31" x="370.703125"/>
     </g>
    </g>
    <g id="line2d_21">
     <path d="M 333.258387 230.2725 
L 341.258387 230.2725 
L 349.258387 230.2725 
" style="fill: none; stroke: #dc2626; stroke-width: 2; stroke-linecap: square"/>
    </g>
    <g id="text_17">
     <!-- path l=2 -->
     <g transform="translate(355.658387 233.0725) scale(0.08 -0.08)">
      <use xlink:href="#DejaVuSans-70"/>
      <use xlink:href="#DejaVuSans-61" x="63.476562"/>
      <use xlink:href="#DejaVuSans-74" x="124.755859"/>
      <use xlink:href="#DejaVuSans-68" x="163.964844"/>
      <use xlink:href="#DejaVuSans-20" x="227.34375"/>
      <use xlink:href="#DejaVuSans-6c" x="259.130859"/>
      <use xlink:href="#DejaVuSans-3d" x="286.914062"/>
      <use xlink:href="#DejaVuSans-32" x="370.703125"/>
     </g>
    </g>
   </g>
   <g id="text_18">
    <!-- 1 -->
    <g style="fill: #ffffff" transform="translate(253.35602 313.939363) scale(0.08 -0.08)">
     <defs>
      <path id="DejaVuSans-Bold-31" d="M 750 831 
L 1813 831 
L 1813 3847 
L 722 3622 
L 722 4441 
L 1806 4666 
L 2950 4666 
L 2950 831 
L 4013 831 
L 4013 0 
L 750 0 
L 750 831 
z
" transform="scale(0.015625)"/>
     </defs>
     <use xlink:href="#DejaVuSans-Bold-31"/>
    </g>
   </g>
   <g id="text_19">
    <!-- 2 -->
    <g style="fill: #ffffff" transform="translate(275.058491 237.534595) scale(0.08 -0.08)">
     <defs>
      <path id="DejaVuSans-Bold-32" d="M 1844 884 
L 3897 884 
L 3897 0 
L 506 0 
L 506 884 
L 2209 2388 
Q 2438 2594 2547 2791 
Q 2656 2988 2656 3200 
Q 2656 3528 2436 3728 
Q 2216 3928 1850 3928 
Q 1569 3928 1234 3808 
Q 900 3688 519 3450 
L 519 4475 
Q 925 4609 1322 4679 
Q 1719 4750 2100 4750 
Q 2938 4750 3402 4381 
Q 3866 4013 3866 3353 
Q 3866 2972 3669 2642 
Q 3472 2313 2841 1759 
L 1844 884 
z
" transform="scale(0.015625)"/>
     </defs>
     <use xlink:href="#DejaVuSans-Bold-32"/>
    </g>
   </g>
   <g id="text_20">
    <!-- 3 -->
    <g style="fill: #ffffff" transform="translate(239.699287 127.711543) scale(0.08 -0.08)">
     <defs>
      <path id="DejaVuSans-Bold-33" d="M 2981 2516 
Q 3453 2394 3698 2092 
Q 3944 1791 3944 1325 
Q 3944 631 3412 270 
Q 2881 -91 1863 -91 
Q 1503 -91 1142 -33 
Q 781 25 428 141 
L 428 1069 
Q 766 900 1098 814 
Q 1431 728 1753 728 
Q 2231 728 2486 893 
Q 2741 1059 2741 1369 
Q 2741 1688 2480 1852 
Q 2219 2016 1709 2016 
L 1228 2016 
L 1228 2791 
L 1734 2791 
Q 2188 2791 2409 2933 
Q 2631 3075 2631 3366 
Q 2631 3634 2415 3781 
Q 2200 3928 1806 3928 
Q 1516 3928 1219 3862 
Q 922 3797 628 3669 
L 628 4550 
Q 984 4650 1334 4700 
Q 1684 4750 2022 4750 
Q 2931 4750 3382 4451 
Q 3834 4153 3834 3553 
Q 3834 3144 3618 2883 
Q 3403 2622 2981 2516 
z
" transform="scale(0.015625)"/>
     </defs>
     <use xlink:href="#DejaVuSans-Bold-33"/>
    </g>
   </g>
   <g id="text_21">
    <!-- 4 -->
    <g style="fill: #ffffff" transform="translate(292.038354 142.475563) scale(0.08 -0.08)">
     <defs>
      <path id="DejaVuSans-Bold-34" d="M 2356 3675 
L 1038 1722 
L 2356 1722 
L 2356 3675 
z
M 2156 4666 
L 3494 4666 
L 3494 1722 
L 4159 1722 
L 4159 850 
L 3494 850 
L 3494 0 
L 2356 0 
L 2356 850 
L 288 850 
L 288 1881 
L 2156 4666 
z
" transform="scale(0.015625)"/>
     </defs>
     <use xlink:href="#DejaVuSans-Bold-34"/>
    </g>
   </g>
   <g id="text_22">
    <!-- 5 -->
    <g style="fill: #ffffff" transform="translate(259.858877 159.970858) scale(0.08 -0.08)">
     <defs>
      <path id="DejaVuSans-Bold-35" d="M 678 4666 
L 3669 4666 
L 3669 3781 
L 1638 3781 
L 1638 3059 
Q 1775 3097 1914 3117 
Q 2053 3138 2203 3138 
Q 3056 3138 3531 2711 
Q 4006 2284 4006 1522 
Q 4006 766 3489 337 
Q 2972 -91 2053 -91 
Q 1656 -91 1267 -14 
Q 878 63 494 219 
L 494 1166 
Q 875 947 1217 837 
Q 1559 728 1863 728 
Q 2300 728 2551 942 
Q 2803 1156 2803 1522 
Q 2803 1891 2551 2103 
Q 2300 2316 1863 2316 
Q 1603 2316 1309 2248 
Q 1016 2181 678 2041 
L 678 4666 
z
" transform="scale(0.015625)"/>
     </defs>
     <use xlink:href="#DejaVuSans-Bold-35"/>
    </g>
   </g>
   <g id="text_23">
    <!-- 6 -->
    <g style="fill: #ffffff" transform="translate(261.727795 114.899746) scale(0.08 -0.08)">
     <defs>
      <path id="DejaVuSans-Bold-36" d="M 2316 2303 
Q 2000 2303 1842 2098 
Q 1684 1894 1684 1484 
Q 1684 1075 1842 870 
Q 2000 666 2316 666 
Q 2634 666 2792 870 
Q 2950 1075 2950 1484 
Q 2950 1894 2792 2098 
Q 2634 2303 2316 2303 
z
M 3803 4544 
L 3803 3681 
Q 3506 3822 3243 3889 
Q 2981 3956 2731 3956 
Q 2194 3956 1894 3657 
Q 1594 3359 1544 2772 
Q 1750 2925 1990 3001 
Q 2231 3078 2516 3078 
Q 3231 3078 3670 2659 
Q 4109 2241 4109 1563 
Q 4109 813 3618 361 
Q 3128 -91 2303 -91 
Q 1394 -91 895 523 
Q 397 1138 397 2266 
Q 397 3422 980 4083 
Q 1563 4744 2578 4744 
Q 2900 4744 3203 4694 
Q 3506 4644 3803 4544 
z
" transform="scale(0.015625)"/>
     </defs>
     <use xlink:href="#DejaVuSans-Bold-36"/>
    </g>
   </g>
   <g id="text_24">
    <!-- 7 -->
    <g style="fill: #ffffff" transform="translate(292.215338 158.638511) scale(0.08 -0.08)">
     <defs>
      <path id="DejaVuSans-Bold-37" d="M 428 4666 
L 3944 4666 
L 3944 3988 
L 2125 0 
L 953 0 
L 2675 3781 
L 428 3781 
L 428 4666 
z
" transform="scale(0.015625)"/>
     </defs>
     <use xlink:href="#DejaVuSans-Bold-37"/>
    </g>
   </g>
   <g id="text_25">
    <!-- 8 -->
    <g style="fill: #ffffff" transform="translate(235.112015 375.642045) scale(0.08 -0.08)">
     <defs>
      <path id="DejaVuSans-Bold-38" d="M 2228 2088 
Q 1891 2088 1709 1903 
Q 1528 1719 1528 1375 
Q 1528 1031 1709 848 
Q 1891 666 2228 666 
Q 2563 666 2741 848 
Q 2919 1031 2919 1375 
Q 2919 1722 2741 1905 
Q 2563 2088 2228 2088 
z
M 1350 2484 
Q 925 2613 709 2878 
Q 494 3144 494 3541 
Q 494 4131 934 4440 
Q 1375 4750 2228 4750 
Q 3075 4750 3515 4442 
Q 3956 4134 3956 3541 
Q 3956 3144 3739 2878 
Q 3522 2613 3097 2484 
Q 3572 2353 3814 2058 
Q 4056 1763 4056 1313 
Q 4056 619 3595 264 
Q 3134 -91 2228 -91 
Q 1319 -91 855 264 
Q 391 619 391 1313 
Q 391 1763 633 2058 
Q 875 2353 1350 2484 
z
M 1631 3419 
Q 1631 3141 1786 2991 
Q 1941 2841 2228 2841 
Q 2509 2841 2662 2991 
Q 2816 3141 2816 3419 
Q 2816 3697 2662 3845 
Q 2509 3994 2228 3994 
Q 1941 3994 1786 3844 
Q 1631 3694 1631 3419 
z
" transform="scale(0.015625)"/>
     </defs>
     <use xlink:href="#DejaVuSans-Bold-38"/>
    </g>
   </g>
   <g id="text_26">
    <!-- 9 -->
    <g style="fill: #ffffff" transform="translate(292.388217 246.705332) scale(0.08 -0.08)">
     <defs>
      <path id="DejaVuSans-Bold-39" d="M 641 103 
L 641 966 
Q 928 831 1190 764 
Q 1453 697 1709 697 
Q 2247 697 2547 995 
Q 2847 1294 2900 1881 
Q 2688 1725 2447 1647 
Q 2206 1569 1925 1569 
Q 1209 1569 770 1986 
Q 331 2403 331 3084 
Q 331 3838 820 4291 
Q 1309 4744 2131 4744 
Q 3044 4744 3544 4128 
Q 4044 3513 4044 2388 
Q 4044 1231 3459 570 
Q 2875 -91 1856 -91 
Q 1528 -91 1228 -42 
Q 928 6 641 103 
z
M 2125 2350 
Q 2441 2350 2600 2554 
Q 2759 2759 2759 3169 
Q 2759 3575 2600 3781 
Q 2441 3988 2125 3988 
Q 1809 3988 1650 3781 
Q 1491 3575 1491 3169 
Q 1491 2759 1650 2554 
Q 1809 2350 2125 2350 
z
" transform="scale(0.015625)"/>
     </defs>
     <use xlink:href="#DejaVuSans-Bold-39"/>
    </g>
   </g>
   <g id="text_27">
    <!-- 10 -->
    <g style="fill: #ffffff" transform="translate(215.431663 177.231701) scale(0.08 -0.08)">
     <use xlink:href="#DejaVuSans-Bold-31"/>
     <use xlink:href="#DejaVuSans-Bold-30" x="69.580078"/>
    </g>
   </g>
   <g id="text_28">
    <!-- 11 -->
    <g style="fill: #ffffff" transform="translate(307.499834 194.20549) scale(0.08 -0.08)">
     <use xlink:href="#DejaVuSans-Bold-31"/>
     <use xlink:href="#DejaVuSans-Bold-31" x="69.580078"/>
    </g>
   </g>
   <g id="text_29">
    <!-- 12 -->
    <g style="fill: #ffffff" transform="translate(271.370254 277.772522) scale(0.08 -0.08)">
     <use xlink:href="#DejaVuSans-Bold-31"/>
     <use xlink:href="#DejaVuSans-Bold-32" x="69.580078"/>
    </g>
   </g>
  </g>
 </g>
 <defs>
  <clipPath id="p3d4bdd3087">
   <rect x="216.097705" y="24.72" width="107.804591" height="365.32"/>
  </clipPath>
 </defs>
</svg>
